<svg version="1.1" viewBox="0.0 0.0 600.0 371.0" fill="none" stroke="none" stroke-linecap="square" stroke-miterlimit="10" width="600" height="371" xmlns:xlink="http://www.w3.org/1999/xlink" xmlns="http://www.w3.org/2000/svg"><path fill="#ffffff" d="M0 0L600.0 0L600.0 371.0L0 371.0L0 0Z" fill-rule="nonzero"/><path stroke="#cccccc" stroke-width="1.0" stroke-linecap="butt" d="M91.5 88.5L91.5 300.5" fill-rule="nonzero"/><path stroke="#cccccc" stroke-width="1.0" stroke-linecap="butt" d="M214.5 88.5L214.5 300.5" fill-rule="nonzero"/><path stroke="#cccccc" stroke-width="1.0" stroke-linecap="butt" d="M336.5 88.5L336.5 300.5" fill-rule="nonzero"/><path stroke="#cccccc" stroke-width="1.0" stroke-linecap="butt" d="M458.5 88.5L458.5 300.5" fill-rule="nonzero"/><path stroke="#cccccc" stroke-width="1.0" stroke-linecap="butt" d="M581.5 88.5L581.5 300.5" fill-rule="nonzero"/><path stroke="#333333" stroke-width="1.0" stroke-linecap="butt" d="M91.5 300.5L581.5 300.5" fill-rule="nonzero"/><path stroke="#cccccc" stroke-width="1.0" stroke-linecap="butt" d="M91.5 258.5L581.5 258.5" fill-rule="nonzero"/><path stroke="#cccccc" stroke-width="1.0" stroke-linecap="butt" d="M91.5 215.5L581.5 215.5" fill-rule="nonzero"/><path stroke="#cccccc" stroke-width="1.0" stroke-linecap="butt" d="M91.5 173.5L581.5 173.5" fill-rule="nonzero"/><path stroke="#cccccc" stroke-width="1.0" stroke-linecap="butt" d="M91.5 130.5L581.5 130.5" fill-rule="nonzero"/><path stroke="#cccccc" stroke-width="1.0" stroke-linecap="butt" d="M91.5 88.5L581.5 88.5" fill-rule="nonzero"/><clipPath id="id_0"><path d="M91.55 88.28333L581.45 88.28333L581.45 300.45L91.55 300.45L91.55 88.28333Z" clip-rule="nonzero"/></clipPath><path stroke="#4285f4" stroke-width="2.0" stroke-linecap="butt" clip-path="url(#id_0)" d="M91.55 130.6318L214.025 213.90297L336.5 233.82967L458.975 240.48322L581.45 246.13533" fill-rule="nonzero"/><path stroke="#ea4335" stroke-width="2.0" stroke-linecap="butt" clip-path="url(#id_0)" d="M214.025 257.21893L336.5 260.63055L458.975 266.09598L581.45 261.80173" fill-rule="nonzero"/><path fill="#000000" fill-opacity="0.0" clip-path="url(#id_0)" d="M94.55 130.6318C94.55 132.28865 93.206856 133.6318 91.55 133.6318C89.89314 133.6318 88.55 132.28865 88.55 130.6318C88.55 128.97495 89.89314 127.6318 91.55 127.6318C93.206856 127.6318 94.55 128.97495 94.55 130.6318Z" fill-rule="nonzero"/><path fill="#000000" fill-opacity="0.0" clip-path="url(#id_0)" d="M217.025 213.90297C217.025 215.55983 215.68185 216.90297 214.025 216.90297C212.36815 216.90297 211.025 215.55983 211.025 213.90297C211.025 212.24612 212.36815 210.90297 214.025 210.90297C215.68185 210.90297 217.025 212.24612 217.025 213.90297Z" fill-rule="nonzero"/><path fill="#000000" fill-opacity="0.0" clip-path="url(#id_0)" d="M339.5 233.82967C339.5 235.48653 338.15686 236.82967 336.5 236.82967C334.84314 236.82967 333.5 235.48653 333.5 233.82967C333.5 232.1728 334.84314 230.82967 336.5 230.82967C338.15686 230.82967 339.5 232.1728 339.5 233.82967Z" fill-rule="nonzero"/><path fill="#000000" fill-opacity="0.0" clip-path="url(#id_0)" d="M461.975 240.48322C461.975 242.14006 460.63187 243.48322 458.975 243.48322C457.31815 243.48322 455.975 242.14006 455.975 240.48322C455.975 238.82635 457.31815 237.48322 458.975 237.48322C460.63187 237.48322 461.975 238.82635 461.975 240.48322Z" fill-rule="nonzero"/><path fill="#000000" fill-opacity="0.0" clip-path="url(#id_0)" d="M584.45 246.13533C584.45 247.79219 583.1069 249.13533 581.45 249.13533C579.79315 249.13533 578.45 247.79219 578.45 246.13533C578.45 244.47849 579.79315 243.13533 581.45 243.13533C583.1069 243.13533 584.45 244.47849 584.45 246.13533Z" fill-rule="nonzero"/><path fill="#000000" fill-opacity="0.0" clip-path="url(#id_0)" d="M217.025 257.21893C217.025 258.87576 215.68185 260.21893 214.025 260.21893C212.36815 260.21893 211.025 258.87576 211.025 257.21893C211.025 255.56207 212.36815 254.21892 214.025 254.21892C215.68185 254.21892 217.025 255.56207 217.025 257.21893Z" fill-rule="nonzero"/><path fill="#000000" fill-opacity="0.0" clip-path="url(#id_0)" d="M339.5 260.63055C339.5 262.2874 338.15686 263.63055 336.5 263.63055C334.84314 263.63055 333.5 262.2874 333.5 260.63055C333.5 258.9737 334.84314 257.63055 336.5 257.63055C338.15686 257.63055 339.5 258.9737 339.5 260.63055Z" fill-rule="nonzero"/><path fill="#000000" fill-opacity="0.0" clip-path="url(#id_0)" d="M461.975 266.09598C461.975 267.75284 460.63187 269.09598 458.975 269.09598C457.31815 269.09598 455.975 267.75284 455.975 266.09598C455.975 264.43912 457.31815 263.09598 458.975 263.09598C460.63187 263.09598 461.975 264.43912 461.975 266.09598Z" fill-rule="nonzero"/><path fill="#000000" fill-opacity="0.0" clip-path="url(#id_0)" d="M584.45 261.80173C584.45 263.4586 583.1069 264.80173 581.45 264.80173C579.79315 264.80173 578.45 263.4586 578.45 261.80173C578.45 260.14487 579.79315 258.80173 581.45 258.80173C583.1069 258.80173 584.45 260.14487 584.45 261.80173Z" fill-rule="nonzero"/><path fill="#000000" d="M310.29688 349.45L310.29688 343.23126L311.23438 343.23126L311.23438 344.10626Q311.92188 343.09064 313.21875 343.09064Q313.78125 343.09064 314.25 343.29376Q314.73438 343.4969 314.96875 343.825Q315.20312 344.15314 315.29688 344.59064Q315.34375 344.8875 315.34375 345.6219L315.34375 349.45L314.29688 349.45L314.29688 345.66876Q314.29688 345.0125 314.17188 344.7Q314.04688 344.3875 313.73438 344.2Q313.42188 343.9969 313.0 343.9969Q312.32812 343.9969 311.82812 344.4344Q311.34375 344.85626 311.34375 346.04376L311.34375 349.45L310.29688 349.45ZM321.4375 349.45L319.53125 343.23126L320.625 343.23126L321.60938 346.825L321.98438 348.15314Q322.01562 348.0594 322.3125 346.8719L323.29688 343.23126L324.375 343.23126L325.3125 346.84064L325.625 348.02814L325.98438 346.825L327.04688 343.23126L328.07812 343.23126L326.125 349.45L325.03125 349.45L324.04688 345.71564L323.79688 344.66876L322.54688 349.45L321.4375 349.45ZM328.90625 346.34064Q328.90625 344.60626 329.85938 343.77814Q330.65625 343.09064 331.8125 343.09064Q333.09375 343.09064 333.90625 343.9344Q334.73438 344.7625 334.73438 346.2469Q334.73438 347.45 334.375 348.1375Q334.01562 348.825 333.3125 349.21564Q332.625 349.59064 331.8125 349.59064Q330.51562 349.59064 329.70312 348.7625Q328.90625 347.91876 328.90625 346.34064ZM329.98438 346.34064Q329.98438 347.52814 330.5 348.1219Q331.03125 348.71564 331.8125 348.71564Q332.60938 348.71564 333.125 348.1219Q333.64062 347.52814 333.64062 346.3094Q333.64062 345.15314 333.10938 344.5594Q332.59375 343.96564 331.8125 343.96564Q331.03125 343.96564 330.5 344.5594Q329.98438 345.1375 329.98438 346.34064ZM336.28125 349.45L336.28125 343.23126L337.23438 343.23126L337.23438 344.16876Q337.59375 343.5125 337.89062 343.3094Q338.20312 343.09064 338.57812 343.09064Q339.10938 343.09064 339.65625 343.41876L339.29688 344.40314Q338.90625 344.16876 338.53125 344.16876Q338.17188 344.16876 337.89062 344.3875Q337.625 344.59064 337.51562 344.96564Q337.32812 345.52814 337.32812 346.1844L337.32812 349.45L336.28125 349.45ZM340.29688 349.45L340.29688 340.85626L341.35938 340.85626L341.35938 345.7625L343.84375 343.23126L345.21875 343.23126L342.82812 345.52814L345.45312 349.45L344.15625 349.45L342.09375 346.2625L341.35938 346.98126L341.35938 349.45L340.29688 349.45ZM350.54688 347.45L351.64062 347.575Q351.39062 348.52814 350.6875 349.0594Q349.98438 349.59064 348.90625 349.59064Q347.54688 349.59064 346.73438 348.7469Q345.9375 347.90314 345.9375 346.3875Q345.9375 344.825 346.75 343.96564Q347.5625 343.09064 348.84375 343.09064Q350.09375 343.09064 350.875 343.9344Q351.67188 344.77814 351.67188 346.325Q351.67188 346.41876 351.67188 346.60626L347.03125 346.60626Q347.09375 347.6375 347.60938 348.1844Q348.125 348.71564 348.90625 348.71564Q349.48438 348.71564 349.89062 348.41876Q350.3125 348.10626 350.54688 347.45ZM347.09375 345.7469L350.5625 345.7469Q350.5 344.95 350.17188 344.5594Q349.65625 343.95 348.85938 343.95Q348.125 343.95 347.625 344.4344Q347.14062 344.91876 347.09375 345.7469ZM353.28125 349.45L353.28125 343.23126L354.23438 343.23126L354.23438 344.16876Q354.59375 343.5125 354.89062 343.3094Q355.20312 343.09064 355.57812 343.09064Q356.10938 343.09064 356.65625 343.41876L356.29688 344.40314Q355.90625 344.16876 355.53125 344.16876Q355.17188 344.16876 354.89062 344.3875Q354.625 344.59064 354.51562 344.96564Q354.32812 345.52814 354.32812 346.1844L354.32812 349.45L353.28125 349.45ZM356.875 347.59064L357.90625 347.4344Q358.0 348.0594 358.39062 348.3875Q358.79688 348.71564 359.53125 348.71564Q360.25 348.71564 360.59375 348.4344Q360.95312 348.1375 360.95312 347.73126Q360.95312 347.3719 360.64062 347.16876Q360.42188 347.02814 359.5625 346.8094Q358.40625 346.5125 357.95312 346.3094Q357.51562 346.09064 357.28125 345.71564Q357.04688 345.34064 357.04688 344.8719Q357.04688 344.46564 357.23438 344.10626Q357.42188 343.7469 357.75 343.5125Q358.0 343.34064 358.42188 343.21564Q358.84375 343.09064 359.34375 343.09064Q360.0625 343.09064 360.60938 343.3094Q361.17188 343.5125 361.4375 343.8719Q361.70312 344.23126 361.79688 344.825L360.76562 344.96564Q360.70312 344.4969 360.35938 344.23126Q360.03125 343.95 359.40625 343.95Q358.6875 343.95 358.375 344.2Q358.0625 344.4344 358.0625 344.7625Q358.0625 344.96564 358.1875 345.1219Q358.32812 345.29376 358.59375 345.40314Q358.75 345.46564 359.53125 345.66876Q360.65625 345.98126 361.09375 346.16876Q361.53125 346.35626 361.78125 346.71564Q362.03125 347.075 362.03125 347.6219Q362.03125 348.15314 361.71875 348.6219Q361.42188 349.075 360.84375 349.34064Q360.26562 349.59064 359.53125 349.59064Q358.3125 349.59064 357.67188 349.09064Q357.04688 348.575 356.875 347.59064Z" fill-rule="nonzero"/><path fill="#000000" d="M28.612513 218.77292L29.534388 218.61667Q29.628138 219.0698 29.628138 219.41354Q29.628138 219.99167 29.456263 220.30417Q29.268763 220.61667 28.971888 220.7573Q28.675013 220.8823 27.721888 220.8823L24.143763 220.8823L24.143763 221.64792L23.331263 221.64792L23.331263 220.8823L21.784388 220.8823L21.159388 219.83542L23.331263 219.83542L23.331263 218.77292L24.143763 218.77292L24.143763 219.83542L27.784388 219.83542Q28.237513 219.83542 28.362513 219.78854Q28.487513 219.72604 28.565638 219.60104Q28.643763 219.47604 28.643763 219.24167Q28.643763 219.05417 28.612513 218.77292ZM22.175013 218.0698L20.956263 218.0698L20.956263 217.0073L22.175013 217.0073L22.175013 218.0698ZM29.550013 218.0698L23.331263 218.0698L23.331263 217.0073L29.550013 217.0073L29.550013 218.0698ZM29.550013 215.0698L23.331263 215.0698L23.331263 214.1323L24.206263 214.1323Q23.737513 213.83542 23.471888 213.35104Q23.190638 212.86667 23.190638 212.24167Q23.190638 211.55417 23.471888 211.11667Q23.753138 210.66354 24.268763 210.49167Q23.190638 209.74167 23.190638 208.5698Q23.190638 207.6323 23.706263 207.14792Q24.206263 206.64792 25.284388 206.64792L29.550013 206.64792L29.550013 207.6948L25.628138 207.6948Q25.003138 207.6948 24.721888 207.80417Q24.440638 207.89792 24.268763 208.16354Q24.096888 208.42917 24.096888 208.80417Q24.096888 209.46042 24.534388 209.89792Q24.971888 210.3198 25.940638 210.3198L29.550013 210.3198L29.550013 211.3823L25.503138 211.3823Q24.800013 211.3823 24.456263 211.64792Q24.096888 211.89792 24.096888 212.47604Q24.096888 212.92917 24.331263 213.30417Q24.565638 213.67917 25.018763 213.85104Q25.471888 214.02292 26.315638 214.02292L29.550013 214.02292L29.550013 215.0698ZM27.550013 199.8198L27.675013 198.72604Q28.628138 198.97604 29.159388 199.67917Q29.690638 200.3823 29.690638 201.46042Q29.690638 202.8198 28.846888 203.6323Q28.003138 204.42917 26.487513 204.42917Q24.925013 204.42917 24.065638 203.61667Q23.190638 202.80417 23.190638 201.52292Q23.190638 200.27292 24.034388 199.49167Q24.878138 198.6948 26.425013 198.6948Q26.518763 198.6948 26.706263 198.6948L26.706263 203.33542Q27.737513 203.27292 28.284388 202.7573Q28.815638 202.24167 28.815638 201.46042Q28.815638 200.8823 28.518763 200.47604Q28.206263 200.05417 27.550013 199.8198ZM25.846888 203.27292L25.846888 199.80417Q25.050013 199.86667 24.659388 200.1948Q24.050013 200.71042 24.050013 201.5073Q24.050013 202.24167 24.534388 202.74167Q25.018763 203.22604 25.846888 203.27292ZM32.08126 192.05417Q30.971888 192.92917 29.503138 193.53854Q28.018763 194.1323 26.440638 194.1323Q25.050013 194.1323 23.768763 193.6948Q22.284388 193.16354 20.815638 192.05417L20.815638 191.30417Q22.034388 192.0073 22.550013 192.24167Q23.362513 192.60104 24.237513 192.80417Q25.331263 193.05417 26.440638 193.05417Q29.268763 193.05417 32.08126 191.30417L32.08126 192.05417ZM27.690638 190.49167L27.534388 189.46042Q28.159388 189.36667 28.487513 188.97604Q28.815638 188.5698 28.815638 187.83542Q28.815638 187.11667 28.534388 186.77292Q28.237513 186.41354 27.831263 186.41354Q27.471888 186.41354 27.268763 186.72604Q27.128138 186.9448 26.909388 187.80417Q26.612513 188.96042 26.409388 189.41354Q26.190638 189.85104 25.815638 190.08542Q25.440638 190.3198 24.971888 190.3198Q24.565638 190.3198 24.206263 190.1323Q23.846888 189.9448 23.612513 189.61667Q23.440638 189.36667 23.315638 188.9448Q23.190638 188.52292 23.190638 188.02292Q23.190638 187.30417 23.409388 186.7573Q23.612513 186.1948 23.971888 185.92917Q24.331263 185.66354 24.925013 185.5698L25.065638 186.60104Q24.596888 186.66354 24.331263 187.0073Q24.050013 187.33542 24.050013 187.96042Q24.050013 188.67917 24.300013 188.99167Q24.534388 189.30417 24.862513 189.30417Q25.065638 189.30417 25.221888 189.17917Q25.393763 189.03854 25.503138 188.77292Q25.565638 188.61667 25.768763 187.83542Q26.081263 186.71042 26.268763 186.27292Q26.456263 185.83542 26.815638 185.58542Q27.175013 185.33542 27.721888 185.33542Q28.253138 185.33542 28.721888 185.64792Q29.175013 185.9448 29.440638 186.52292Q29.690638 187.10104 29.690638 187.83542Q29.690638 189.05417 29.190638 189.6948Q28.675013 190.3198 27.690638 190.49167ZM32.08126 182.3823L32.08126 183.1323Q29.268763 181.3823 26.440638 181.3823Q25.346888 181.3823 24.253138 181.6323Q23.378138 181.83542 22.565638 182.1948Q22.050013 182.42917 20.815638 183.1323L20.815638 182.3823Q22.284388 181.28854 23.768763 180.7573Q25.050013 180.30417 26.440638 180.30417Q28.018763 180.30417 29.503138 180.91354Q30.971888 181.52292 32.08126 182.3823Z" fill-rule="nonzero"/><path fill="#000000" d="M79.05 300.21564Q79.05 298.6844 79.3625 297.7625Q79.675 296.825 80.28438 296.325Q80.90938 295.825 81.84688 295.825Q82.53438 295.825 83.05 296.10626Q83.58125 296.3875 83.925 296.91876Q84.26875 297.4344 84.45625 298.1844Q84.64375 298.9344 84.64375 300.21564Q84.64375 301.73126 84.33125 302.65314Q84.03438 303.575 83.40938 304.09064Q82.8 304.59064 81.84688 304.59064Q80.6125 304.59064 79.89375 303.7Q79.05 302.6375 79.05 300.21564ZM80.12813 300.21564Q80.12813 302.325 80.62813 303.02814Q81.12813 303.73126 81.84688 303.73126Q82.58125 303.73126 83.06563 303.02814Q83.56563 302.325 83.56563 300.21564Q83.56563 298.09064 83.06563 297.40314Q82.58125 296.7 81.83125 296.7Q81.1125 296.7 80.675 297.3094Q80.12813 298.09064 80.12813 300.21564Z" fill-rule="nonzero"/><path fill="#000000" d="M63.596874 261.00104L63.596874 262.01666L57.909374 262.01666Q57.909374 261.64166 58.034374 261.2823Q58.253124 260.70416 58.721874 260.14166Q59.20625 259.57916 60.1125 258.8448Q61.51875 257.68854 62.003124 257.01666Q62.503124 256.3448 62.503124 255.75104Q62.503124 255.12604 62.05 254.70416Q61.596874 254.26666 60.878124 254.26666Q60.1125 254.26666 59.659374 254.71979Q59.20625 255.17291 59.190624 255.98541L58.1125 255.87604Q58.221874 254.65729 58.940624 254.03229Q59.675 253.39166 60.909374 253.39166Q62.14375 253.39166 62.8625 254.07916Q63.58125 254.76666 63.58125 255.78229Q63.58125 256.2979 63.3625 256.7979Q63.159374 257.2823 62.659374 257.8448Q62.175 258.39166 61.05 259.3448Q60.096874 260.14166 59.815624 260.43854Q59.55 260.7198 59.378124 261.00104L63.596874 261.00104ZM65.05 259.76666L66.15938 259.6729Q66.28438 260.4854 66.72188 260.89166Q67.175 261.2979 67.81563 261.2979Q68.56563 261.2979 69.09688 260.7198Q69.62813 260.14166 69.62813 259.20416Q69.62813 258.2979 69.1125 257.7823Q68.6125 257.25104 67.78438 257.25104Q67.28438 257.25104 66.8625 257.4854Q66.45625 257.7198 66.22188 258.07916L65.2375 257.95416L66.06563 253.54791L70.34688 253.54791L70.34688 254.54791L66.90938 254.54791L66.45625 256.8604Q67.22188 256.31354 68.06563 256.31354Q69.19063 256.31354 69.95625 257.0948Q70.7375 257.87604 70.7375 259.1104Q70.7375 260.26666 70.06563 261.12604Q69.2375 262.1573 67.81563 262.1573Q66.64375 262.1573 65.89375 261.50104Q65.15938 260.8448 65.05 259.76666ZM72.05 257.7823Q72.05 256.25104 72.3625 255.32916Q72.675 254.39166 73.28438 253.89166Q73.90938 253.39166 74.84688 253.39166Q75.53438 253.39166 76.05 253.67291Q76.58125 253.95416 76.925 254.48541Q77.26875 255.00104 77.45625 255.75104Q77.64375 256.50104 77.64375 257.7823Q77.64375 259.2979 77.33125 260.2198Q77.03438 261.14166 76.40938 261.6573Q75.8 262.1573 74.84688 262.1573Q73.6125 262.1573 72.89375 261.26666Q72.05 260.20416 72.05 257.7823ZM73.12813 257.7823Q73.12813 259.89166 73.62813 260.5948Q74.12813 261.2979 74.84688 261.2979Q75.58125 261.2979 76.06563 260.5948Q76.56563 259.89166 76.56563 257.7823Q76.56563 255.65729 76.06563 254.96979Q75.58125 254.26666 74.83125 254.26666Q74.1125 254.26666 73.675 254.87604Q73.12813 255.65729 73.12813 257.7823ZM79.05 257.7823Q79.05 256.25104 79.3625 255.32916Q79.675 254.39166 80.28438 253.89166Q80.90938 253.39166 81.84688 253.39166Q82.53438 253.39166 83.05 253.67291Q83.58125 253.95416 83.925 254.48541Q84.26875 255.00104 84.45625 255.75104Q84.64375 256.50104 84.64375 257.7823Q84.64375 259.2979 84.33125 260.2198Q84.03438 261.14166 83.40938 261.6573Q82.8 262.1573 81.84688 262.1573Q80.6125 262.1573 79.89375 261.26666Q79.05 260.20416 79.05 257.7823ZM80.12813 257.7823Q80.12813 259.89166 80.62813 260.5948Q81.12813 261.2979 81.84688 261.2979Q82.58125 261.2979 83.06563 260.5948Q83.56563 259.89166 83.56563 257.7823Q83.56563 255.65729 83.06563 254.96979Q82.58125 254.26666 81.83125 254.26666Q81.1125 254.26666 80.675 254.87604Q80.12813 255.65729 80.12813 257.7823Z" fill-rule="nonzero"/><path fill="#000000" d="M58.05 217.33333L59.159374 217.23958Q59.284374 218.05208 59.721874 218.45833Q60.175 218.86458 60.815624 218.86458Q61.565624 218.86458 62.096874 218.28645Q62.628124 217.70833 62.628124 216.77083Q62.628124 215.86458 62.1125 215.34895Q61.6125 214.8177 60.784374 214.8177Q60.284374 214.8177 59.8625 215.05208Q59.45625 215.28645 59.221874 215.64583L58.2375 215.52083L59.065624 211.11458L63.346874 211.11458L63.346874 212.11458L59.909374 212.11458L59.45625 214.42708Q60.221874 213.8802 61.065624 213.8802Q62.190624 213.8802 62.95625 214.66145Q63.7375 215.4427 63.7375 216.67708Q63.7375 217.83333 63.065624 218.6927Q62.2375 219.72395 60.815624 219.72395Q59.64375 219.72395 58.89375 219.0677Q58.159374 218.41145 58.05 217.33333ZM65.05 215.34895Q65.05 213.8177 65.3625 212.89583Q65.675 211.95833 66.28438 211.45833Q66.90938 210.95833 67.84688 210.95833Q68.53438 210.95833 69.05 211.23958Q69.58125 211.52083 69.925 212.05208Q70.26875 212.5677 70.45625 213.3177Q70.64375 214.0677 70.64375 215.34895Q70.64375 216.86458 70.33125 217.78645Q70.03438 218.70833 69.40938 219.22395Q68.8 219.72395 67.84688 219.72395Q66.6125 219.72395 65.89375 218.83333Q65.05 217.77083 65.05 215.34895ZM66.12813 215.34895Q66.12813 217.45833 66.62813 218.16145Q67.12813 218.86458 67.84688 218.86458Q68.58125 218.86458 69.06563 218.16145Q69.56563 217.45833 69.56563 215.34895Q69.56563 213.22395 69.06563 212.53645Q68.58125 211.83333 67.83125 211.83333Q67.1125 211.83333 66.675 212.4427Q66.12813 213.22395 66.12813 215.34895ZM72.05 215.34895Q72.05 213.8177 72.3625 212.89583Q72.675 211.95833 73.28438 211.45833Q73.90938 210.95833 74.84688 210.95833Q75.53438 210.95833 76.05 211.23958Q76.58125 211.52083 76.925 212.05208Q77.26875 212.5677 77.45625 213.3177Q77.64375 214.0677 77.64375 215.34895Q77.64375 216.86458 77.33125 217.78645Q77.03438 218.70833 76.40938 219.22395Q75.8 219.72395 74.84688 219.72395Q73.6125 219.72395 72.89375 218.83333Q72.05 217.77083 72.05 215.34895ZM73.12813 215.34895Q73.12813 217.45833 73.62813 218.16145Q74.12813 218.86458 74.84688 218.86458Q75.58125 218.86458 76.06563 218.16145Q76.56563 217.45833 76.56563 215.34895Q76.56563 213.22395 76.06563 212.53645Q75.58125 211.83333 74.83125 211.83333Q74.1125 211.83333 73.675 212.4427Q73.12813 213.22395 73.12813 215.34895ZM79.05 215.34895Q79.05 213.8177 79.3625 212.89583Q79.675 211.95833 80.28438 211.45833Q80.90938 210.95833 81.84688 210.95833Q82.53438 210.95833 83.05 211.23958Q83.58125 211.52083 83.925 212.05208Q84.26875 212.5677 84.45625 213.3177Q84.64375 214.0677 84.64375 215.34895Q84.64375 216.86458 84.33125 217.78645Q84.03438 218.70833 83.40938 219.22395Q82.8 219.72395 81.84688 219.72395Q80.6125 219.72395 79.89375 218.83333Q79.05 217.77083 79.05 215.34895ZM80.12813 215.34895Q80.12813 217.45833 80.62813 218.16145Q81.12813 218.86458 81.84688 218.86458Q82.58125 218.86458 83.06563 218.16145Q83.56563 217.45833 83.56563 215.34895Q83.56563 213.22395 83.06563 212.53645Q82.58125 211.83333 81.83125 211.83333Q81.1125 211.83333 80.675 212.4427Q80.12813 213.22395 80.12813 215.34895Z" fill-rule="nonzero"/><path fill="#000000" d="M58.1125 169.68124L58.1125 168.66562L63.675 168.66562L63.675 169.49374Q62.8625 170.36874 62.05 171.82187Q61.253124 173.25937 60.815624 174.79062Q60.4875 175.86874 60.409374 177.15L59.315624 177.15Q59.33125 176.13437 59.70625 174.69687Q60.096874 173.25937 60.8 171.93124Q61.51875 170.60312 62.33125 169.68124L58.1125 169.68124ZM65.05 174.9L66.15938 174.80624Q66.28438 175.61874 66.72188 176.025Q67.175 176.43124 67.81563 176.43124Q68.56563 176.43124 69.09688 175.85312Q69.62813 175.275 69.62813 174.3375Q69.62813 173.43124 69.1125 172.91562Q68.6125 172.38437 67.78438 172.38437Q67.28438 172.38437 66.8625 172.61874Q66.45625 172.85312 66.22188 173.2125L65.2375 173.0875L66.06563 168.68124L70.34688 168.68124L70.34688 169.68124L66.90938 169.68124L66.45625 171.99374Q67.22188 171.44687 68.06563 171.44687Q69.19063 171.44687 69.95625 172.22812Q70.7375 173.00937 70.7375 174.24374Q70.7375 175.4 70.06563 176.25937Q69.2375 177.29062 67.81563 177.29062Q66.64375 177.29062 65.89375 176.63437Q65.15938 175.97812 65.05 174.9ZM72.05 172.91562Q72.05 171.38437 72.3625 170.4625Q72.675 169.525 73.28438 169.025Q73.90938 168.525 74.84688 168.525Q75.53438 168.525 76.05 168.80624Q76.58125 169.0875 76.925 169.61874Q77.26875 170.13437 77.45625 170.88437Q77.64375 171.63437 77.64375 172.91562Q77.64375 174.43124 77.33125 175.35312Q77.03438 176.275 76.40938 176.79062Q75.8 177.29062 74.84688 177.29062Q73.6125 177.29062 72.89375 176.4Q72.05 175.3375 72.05 172.91562ZM73.12813 172.91562Q73.12813 175.025 73.62813 175.72812Q74.12813 176.43124 74.84688 176.43124Q75.58125 176.43124 76.06563 175.72812Q76.56563 175.025 76.56563 172.91562Q76.56563 170.79062 76.06563 170.10312Q75.58125 169.4 74.83125 169.4Q74.1125 169.4 73.675 170.00937Q73.12813 170.79062 73.12813 172.91562ZM79.05 172.91562Q79.05 171.38437 79.3625 170.4625Q79.675 169.525 80.28438 169.025Q80.90938 168.525 81.84688 168.525Q82.53438 168.525 83.05 168.80624Q83.58125 169.0875 83.925 169.61874Q84.26875 170.13437 84.45625 170.88437Q84.64375 171.63437 84.64375 172.91562Q84.64375 174.43124 84.33125 175.35312Q84.03438 176.275 83.40938 176.79062Q82.8 177.29062 81.84688 177.29062Q80.6125 177.29062 79.89375 176.4Q79.05 175.3375 79.05 172.91562ZM80.12813 172.91562Q80.12813 175.025 80.62813 175.72812Q81.12813 176.43124 81.84688 176.43124Q82.58125 176.43124 83.06563 175.72812Q83.56563 175.025 83.56563 172.91562Q83.56563 170.79062 83.06563 170.10312Q82.58125 169.4 81.83125 169.4Q81.1125 169.4 80.675 170.00937Q80.12813 170.79062 80.12813 172.91562Z" fill-rule="nonzero"/><path fill="#000000" d="M55.01875 134.71666L53.971874 134.71666L53.971874 127.99791Q53.58125 128.35728 52.95625 128.73228Q52.346874 129.09166 51.8625 129.26353L51.8625 128.24791Q52.7375 127.826035 53.39375 127.24791Q54.065624 126.65416 54.346874 126.09166L55.01875 126.09166L55.01875 134.71666ZM58.05 130.48228Q58.05 128.95103 58.3625 128.02916Q58.675 127.09166 59.284374 126.59166Q59.909374 126.09166 60.846874 126.09166Q61.534374 126.09166 62.05 126.37291Q62.58125 126.65416 62.925 127.18541Q63.26875 127.701035 63.45625 128.45103Q63.64375 129.20103 63.64375 130.48228Q63.64375 131.99791 63.33125 132.91978Q63.034374 133.84166 62.409374 134.35728Q61.8 134.85728 60.846874 134.85728Q59.6125 134.85728 58.89375 133.96666Q58.05 132.90416 58.05 130.48228ZM59.128124 130.48228Q59.128124 132.59166 59.628124 133.29478Q60.128124 133.99791 60.846874 133.99791Q61.58125 133.99791 62.065624 133.29478Q62.565624 132.59166 62.565624 130.48228Q62.565624 128.35728 62.065624 127.669785Q61.58125 126.96666 60.83125 126.96666Q60.1125 126.96666 59.675 127.576035Q59.128124 128.35728 59.128124 130.48228ZM65.05 130.48228Q65.05 128.95103 65.3625 128.02916Q65.675 127.09166 66.28438 126.59166Q66.90938 126.09166 67.84688 126.09166Q68.53438 126.09166 69.05 126.37291Q69.58125 126.65416 69.925 127.18541Q70.26875 127.701035 70.45625 128.45103Q70.64375 129.20103 70.64375 130.48228Q70.64375 131.99791 70.33125 132.91978Q70.03438 133.84166 69.40938 134.35728Q68.8 134.85728 67.84688 134.85728Q66.6125 134.85728 65.89375 133.96666Q65.05 132.90416 65.05 130.48228ZM66.12813 130.48228Q66.12813 132.59166 66.62813 133.29478Q67.12813 133.99791 67.84688 133.99791Q68.58125 133.99791 69.06563 133.29478Q69.56563 132.59166 69.56563 130.48228Q69.56563 128.35728 69.06563 127.669785Q68.58125 126.96666 67.83125 126.96666Q67.1125 126.96666 66.675 127.576035Q66.12813 128.35728 66.12813 130.48228ZM72.05 130.48228Q72.05 128.95103 72.3625 128.02916Q72.675 127.09166 73.28438 126.59166Q73.90938 126.09166 74.84688 126.09166Q75.53438 126.09166 76.05 126.37291Q76.58125 126.65416 76.925 127.18541Q77.26875 127.701035 77.45625 128.45103Q77.64375 129.20103 77.64375 130.48228Q77.64375 131.99791 77.33125 132.91978Q77.03438 133.84166 76.40938 134.35728Q75.8 134.85728 74.84688 134.85728Q73.6125 134.85728 72.89375 133.96666Q72.05 132.90416 72.05 130.48228ZM73.12813 130.48228Q73.12813 132.59166 73.62813 133.29478Q74.12813 133.99791 74.84688 133.99791Q75.58125 133.99791 76.06563 133.29478Q76.56563 132.59166 76.56563 130.48228Q76.56563 128.35728 76.06563 127.669785Q75.58125 126.96666 74.83125 126.96666Q74.1125 126.96666 73.675 127.576035Q73.12813 128.35728 73.12813 130.48228ZM79.05 130.48228Q79.05 128.95103 79.3625 128.02916Q79.675 127.09166 80.28438 126.59166Q80.90938 126.09166 81.84688 126.09166Q82.53438 126.09166 83.05 126.37291Q83.58125 126.65416 83.925 127.18541Q84.26875 127.701035 84.45625 128.45103Q84.64375 129.20103 84.64375 130.48228Q84.64375 131.99791 84.33125 132.91978Q84.03438 133.84166 83.40938 134.35728Q82.8 134.85728 81.84688 134.85728Q80.6125 134.85728 79.89375 133.96666Q79.05 132.90416 79.05 130.48228ZM80.12813 130.48228Q80.12813 132.59166 80.62813 133.29478Q81.12813 133.99791 81.84688 133.99791Q82.58125 133.99791 83.06563 133.29478Q83.56563 132.59166 83.56563 130.48228Q83.56563 128.35728 83.06563 127.669785Q82.58125 126.96666 81.83125 126.96666Q81.1125 126.96666 80.675 127.576035Q80.12813 128.35728 80.12813 130.48228Z" fill-rule="nonzero"/><path fill="#000000" d="M55.01875 92.28333L53.971874 92.28333L53.971874 85.56458Q53.58125 85.92396 52.95625 86.29896Q52.346874 86.65833 51.8625 86.83021L51.8625 85.81458Q52.7375 85.39271 53.39375 84.81458Q54.065624 84.22083 54.346874 83.65833L55.01875 83.65833L55.01875 92.28333ZM63.596874 91.26771L63.596874 92.28333L57.909374 92.28333Q57.909374 91.90833 58.034374 91.54896Q58.253124 90.97083 58.721874 90.40833Q59.20625 89.84583 60.1125 89.11146Q61.51875 87.95521 62.003124 87.28333Q62.503124 86.61146 62.503124 86.01771Q62.503124 85.39271 62.05 84.97083Q61.596874 84.53333 60.878124 84.53333Q60.1125 84.53333 59.659374 84.98646Q59.20625 85.43958 59.190624 86.25208L58.1125 86.14271Q58.221874 84.92396 58.940624 84.29896Q59.675 83.65833 60.909374 83.65833Q62.14375 83.65833 62.8625 84.34583Q63.58125 85.03333 63.58125 86.04896Q63.58125 86.56458 63.3625 87.06458Q63.159374 87.54896 62.659374 88.11146Q62.175 88.65833 61.05 89.61146Q60.096874 90.40833 59.815624 90.70521Q59.55 90.98646 59.378124 91.26771L63.596874 91.26771ZM65.05 90.03333L66.15938 89.93958Q66.28438 90.75208 66.72188 91.15833Q67.175 91.56458 67.81563 91.56458Q68.56563 91.56458 69.09688 90.98646Q69.62813 90.40833 69.62813 89.47083Q69.62813 88.56458 69.1125 88.04896Q68.6125 87.51771 67.78438 87.51771Q67.28438 87.51771 66.8625 87.75208Q66.45625 87.98646 66.22188 88.34583L65.2375 88.22083L66.06563 83.81458L70.34688 83.81458L70.34688 84.81458L66.90938 84.81458L66.45625 87.12708Q67.22188 86.58021 68.06563 86.58021Q69.19063 86.58021 69.95625 87.36146Q70.7375 88.14271 70.7375 89.37708Q70.7375 90.53333 70.06563 91.39271Q69.2375 92.42396 67.81563 92.42396Q66.64375 92.42396 65.89375 91.76771Q65.15938 91.11146 65.05 90.03333ZM72.05 88.04896Q72.05 86.51771 72.3625 85.59583Q72.675 84.65833 73.28438 84.15833Q73.90938 83.65833 74.84688 83.65833Q75.53438 83.65833 76.05 83.93958Q76.58125 84.22083 76.925 84.75208Q77.26875 85.26771 77.45625 86.01771Q77.64375 86.76771 77.64375 88.04896Q77.64375 89.56458 77.33125 90.48646Q77.03438 91.40833 76.40938 91.92396Q75.8 92.42396 74.84688 92.42396Q73.6125 92.42396 72.89375 91.53333Q72.05 90.47083 72.05 88.04896ZM73.12813 88.04896Q73.12813 90.15833 73.62813 90.86146Q74.12813 91.56458 74.84688 91.56458Q75.58125 91.56458 76.06563 90.86146Q76.56563 90.15833 76.56563 88.04896Q76.56563 85.92396 76.06563 85.23646Q75.58125 84.53333 74.83125 84.53333Q74.1125 84.53333 73.675 85.14271Q73.12813 85.92396 73.12813 88.04896ZM79.05 88.04896Q79.05 86.51771 79.3625 85.59583Q79.675 84.65833 80.28438 84.15833Q80.90938 83.65833 81.84688 83.65833Q82.53438 83.65833 83.05 83.93958Q83.58125 84.22083 83.925 84.75208Q84.26875 85.26771 84.45625 86.01771Q84.64375 86.76771 84.64375 88.04896Q84.64375 89.56458 84.33125 90.48646Q84.03438 91.40833 83.40938 91.92396Q82.8 92.42396 81.84688 92.42396Q80.6125 92.42396 79.89375 91.53333Q79.05 90.47083 79.05 88.04896ZM80.12813 88.04896Q80.12813 90.15833 80.62813 90.86146Q81.12813 91.56458 81.84688 91.56458Q82.58125 91.56458 83.06563 90.86146Q83.56563 90.15833 83.56563 88.04896Q83.56563 85.92396 83.06563 85.23646Q82.58125 84.53333 81.83125 84.53333Q81.1125 84.53333 80.675 85.14271Q80.12813 85.92396 80.12813 88.04896Z" fill-rule="nonzero"/><path fill="#000000" d="M92.51875 317.45L91.47188 317.45L91.47188 310.73126Q91.08125 311.09064 90.45625 311.46564Q89.84688 311.825 89.3625 311.9969L89.3625 310.98126Q90.2375 310.5594 90.89375 309.98126Q91.56563 309.3875 91.84688 308.825L92.51875 308.825L92.51875 317.45Z" fill-rule="nonzero"/><path fill="#000000" d="M216.57187 316.4344L216.57187 317.45L210.88437 317.45Q210.88437 317.075 211.00937 316.71564Q211.22812 316.1375 211.69687 315.575Q212.18124 315.0125 213.0875 314.27814Q214.49374 313.1219 214.97812 312.45Q215.47812 311.77814 215.47812 311.1844Q215.47812 310.5594 215.025 310.1375Q214.57187 309.7 213.85312 309.7Q213.0875 309.7 212.63437 310.15314Q212.18124 310.60626 212.16562 311.41876L211.0875 311.3094Q211.19687 310.09064 211.91562 309.46564Q212.65 308.825 213.88437 308.825Q215.11874 308.825 215.8375 309.5125Q216.55624 310.2 216.55624 311.21564Q216.55624 311.73126 216.3375 312.23126Q216.13437 312.71564 215.63437 313.27814Q215.15 313.825 214.025 314.77814Q213.07187 315.575 212.79062 315.8719Q212.525 316.15314 212.35312 316.4344L216.57187 316.4344Z" fill-rule="nonzero"/><path fill="#000000" d="M333.5 315.1844L334.5625 315.04376Q334.73438 315.9344 335.17188 316.34064Q335.60938 316.73126 336.23438 316.73126Q336.98438 316.73126 337.5 316.21564Q338.01562 315.7 338.01562 314.9344Q338.01562 314.21564 337.53125 313.7469Q337.0625 313.2625 336.32812 313.2625Q336.03125 313.2625 335.57812 313.3875L335.70312 312.45Q335.8125 312.46564 335.875 312.46564Q336.54688 312.46564 337.07812 312.1219Q337.625 311.7625 337.625 311.02814Q337.625 310.45 337.23438 310.075Q336.84375 309.6844 336.21875 309.6844Q335.60938 309.6844 335.1875 310.075Q334.78125 310.46564 334.67188 311.23126L333.60938 311.04376Q333.79688 309.9969 334.48438 309.41876Q335.17188 308.825 336.1875 308.825Q336.89062 308.825 337.48438 309.1375Q338.07812 309.4344 338.39062 309.95Q338.70312 310.46564 338.70312 311.0594Q338.70312 311.60626 338.40625 312.075Q338.10938 312.52814 337.53125 312.79376Q338.28125 312.96564 338.70312 313.52814Q339.125 314.075 339.125 314.91876Q339.125 316.04376 338.29688 316.825Q337.48438 317.60626 336.23438 317.60626Q335.10938 317.60626 334.35938 316.9344Q333.60938 316.2469 333.5 315.1844Z" fill-rule="nonzero"/><path fill="#000000" d="M459.35 317.45L459.35 315.3875L455.63126 315.3875L455.63126 314.41876L459.55313 308.85626L460.4125 308.85626L460.4125 314.41876L461.56876 314.41876L461.56876 315.3875L460.4125 315.3875L460.4125 317.45L459.35 317.45ZM459.35 314.41876L459.35 310.5594L456.6625 314.41876L459.35 314.41876Z" fill-rule="nonzero"/><path fill="#000000" d="M578.45 315.2L579.5594 315.10626Q579.6844 315.91876 580.1219 316.325Q580.575 316.73126 581.21564 316.73126Q581.96564 316.73126 582.4969 316.15314Q583.02814 315.575 583.02814 314.6375Q583.02814 313.73126 582.5125 313.21564Q582.0125 312.6844 581.1844 312.6844Q580.6844 312.6844 580.2625 312.91876Q579.85626 313.15314 579.6219 313.5125L578.6375 313.3875L579.46564 308.98126L583.7469 308.98126L583.7469 309.98126L580.3094 309.98126L579.85626 312.29376Q580.6219 311.7469 581.46564 311.7469Q582.59064 311.7469 583.35626 312.52814Q584.1375 313.3094 584.1375 314.54376Q584.1375 315.7 583.46564 316.5594Q582.6375 317.59064 581.21564 317.59064Q580.04376 317.59064 579.29376 316.9344Q578.5594 316.27814 578.45 315.2Z" fill-rule="nonzero"/><path stroke="#4285f4" stroke-width="4.0" stroke-linecap="butt" d="M247.0 61.916668L259.0 61.916668" fill-rule="nonzero"/><path fill="#1a1a1a" d="M267.92188 65.916664L267.92188 57.322914L271.17188 57.322914Q272.01562 57.322914 272.46875 57.40104Q273.10938 57.510414 273.53125 57.80729Q273.96875 58.104164 274.21875 58.635414Q274.48438 59.166664 274.48438 59.80729Q274.48438 60.90104 273.78125 61.666664Q273.09375 62.416664 271.26562 62.416664L269.0625 62.416664L269.0625 65.916664L267.92188 65.916664ZM269.0625 61.416664L271.28125 61.416664Q272.39062 61.416664 272.84375 61.010414Q273.3125 60.58854 273.3125 59.83854Q273.3125 59.30729 273.03125 58.93229Q272.76562 58.541664 272.32812 58.416664Q272.03125 58.33854 271.26562 58.33854L269.0625 58.33854L269.0625 61.416664ZM275.79688 58.541664L275.79688 57.322914L276.85938 57.322914L276.85938 58.541664L275.79688 58.541664ZM275.79688 65.916664L275.79688 59.697914L276.85938 59.697914L276.85938 65.916664L275.79688 65.916664ZM278.59375 66.43229L279.625 66.58854Q279.6875 67.05729 279.98438 67.27604Q280.375 67.572914 281.04688 67.572914Q281.78125 67.572914 282.17188 67.27604Q282.57812 66.979164 282.71875 66.46354Q282.8125 66.135414 282.79688 65.104164Q282.10938 65.916664 281.07812 65.916664Q279.79688 65.916664 279.09375 64.99479Q278.39062 64.05729 278.39062 62.77604Q278.39062 61.885414 278.70312 61.135414Q279.03125 60.36979 279.64062 59.96354Q280.25 59.55729 281.07812 59.55729Q282.1875 59.55729 282.90625 60.447914L282.90625 59.697914L283.875 59.697914L283.875 65.072914Q283.875 66.52604 283.57812 67.135414Q283.28125 67.74479 282.64062 68.08854Q282.0 68.447914 281.0625 68.447914Q279.95312 68.447914 279.26562 67.947914Q278.57812 67.447914 278.59375 66.43229ZM279.46875 62.697914Q279.46875 63.916664 279.95312 64.479164Q280.4375 65.041664 281.17188 65.041664Q281.90625 65.041664 282.39062 64.479164Q282.89062 63.916664 282.89062 62.729164Q282.89062 61.58854 282.375 61.010414Q281.875 60.43229 281.15625 60.43229Q280.45312 60.43229 279.95312 61.010414Q279.46875 61.572914 279.46875 62.697914Z" fill-rule="nonzero"/><path stroke="#ea4335" stroke-width="4.0" stroke-linecap="butt" d="M301.0 61.916668L313.0 61.916668" fill-rule="nonzero"/><path fill="#1a1a1a" d="M321.54688 63.15104L322.60938 63.05729Q322.6875 63.71354 322.96875 64.11979Q323.25 64.52604 323.82812 64.791664Q324.42188 65.041664 325.15625 65.041664Q325.79688 65.041664 326.29688 64.854164Q326.79688 64.65104 327.03125 64.322914Q327.28125 63.979164 327.28125 63.58854Q327.28125 63.18229 327.04688 62.885414Q326.8125 62.572914 326.28125 62.36979Q325.92188 62.229164 324.73438 61.947914Q323.5625 61.666664 323.09375 61.416664Q322.46875 61.08854 322.17188 60.61979Q321.875 60.135414 321.875 59.541664Q321.875 58.90104 322.23438 58.33854Q322.60938 57.760414 323.3125 57.479164Q324.03125 57.18229 324.89062 57.18229Q325.84375 57.18229 326.57812 57.49479Q327.3125 57.791664 327.70312 58.40104Q328.09375 58.99479 328.125 59.74479L327.03125 59.822914Q326.9375 59.010414 326.42188 58.604164Q325.92188 58.18229 324.9375 58.18229Q323.90625 58.18229 323.4375 58.55729Q322.96875 58.93229 322.96875 59.46354Q322.96875 59.93229 323.29688 60.229164Q323.625 60.52604 325.0 60.83854Q326.39062 61.15104 326.90625 61.385414Q327.65625 61.74479 328.01562 62.27604Q328.375 62.791664 328.375 63.49479Q328.375 64.18229 327.98438 64.791664Q327.59375 65.385414 326.85938 65.729164Q326.125 66.05729 325.20312 66.05729Q324.03125 66.05729 323.23438 65.729164Q322.45312 65.385414 322.0 64.697914Q321.5625 64.010414 321.54688 63.15104ZM329.79688 68.30729L329.79688 59.697914L330.75 59.697914L330.75 60.49479Q331.09375 60.02604 331.51562 59.791664Q331.95312 59.55729 332.5625 59.55729Q333.35938 59.55729 333.96875 59.96354Q334.57812 60.36979 334.875 61.11979Q335.1875 61.86979 335.1875 62.760414Q335.1875 63.71354 334.84375 64.479164Q334.51562 65.24479 333.85938 65.65104Q333.20312 66.05729 332.48438 66.05729Q331.95312 66.05729 331.53125 65.83854Q331.10938 65.604164 330.84375 65.27604L330.84375 68.30729L329.79688 68.30729ZM330.75 62.83854Q330.75 64.041664 331.23438 64.61979Q331.71875 65.18229 332.40625 65.18229Q333.10938 65.18229 333.60938 64.58854Q334.10938 63.99479 334.10938 62.74479Q334.10938 61.55729 333.625 60.979164Q333.14062 60.385414 332.45312 60.385414Q331.78125 60.385414 331.26562 61.010414Q330.75 61.635414 330.75 62.83854ZM340.85938 65.15104Q340.26562 65.65104 339.71875 65.854164Q339.1875 66.05729 338.5625 66.05729Q337.53125 66.05729 336.98438 65.55729Q336.4375 65.05729 336.4375 64.27604Q336.4375 63.822914 336.64062 63.447914Q336.84375 63.05729 337.1875 62.83854Q337.53125 62.604164 337.95312 62.49479Q338.25 62.40104 338.89062 62.322914Q340.15625 62.18229 340.76562 61.96354Q340.76562 61.74479 340.76562 61.697914Q340.76562 61.041664 340.46875 60.77604Q340.0625 60.43229 339.26562 60.43229Q338.53125 60.43229 338.17188 60.697914Q337.8125 60.947914 337.64062 61.604164L336.60938 61.46354Q336.75 60.80729 337.07812 60.40104Q337.40625 59.99479 338.01562 59.77604Q338.625 59.55729 339.42188 59.55729Q340.21875 59.55729 340.71875 59.74479Q341.21875 59.93229 341.45312 60.21354Q341.6875 60.49479 341.78125 60.93229Q341.82812 61.197914 341.82812 61.90104L341.82812 63.30729Q341.82812 64.77604 341.89062 65.166664Q341.96875 65.55729 342.17188 65.916664L341.0625 65.916664Q340.90625 65.58854 340.85938 65.15104ZM340.76562 62.791664Q340.1875 63.02604 339.04688 63.197914Q338.39062 63.291664 338.125 63.416664Q337.85938 63.52604 337.70312 63.74479Q337.5625 63.96354 337.5625 64.24479Q337.5625 64.666664 337.875 64.947914Q338.20312 65.229164 338.8125 65.229164Q339.42188 65.229164 339.89062 64.96354Q340.375 64.697914 340.59375 64.229164Q340.76562 63.86979 340.76562 63.18229L340.76562 62.791664ZM343.78125 65.916664L343.78125 59.697914L344.73438 59.697914L344.73438 60.635414Q345.09375 59.979164 345.39062 59.77604Q345.70312 59.55729 346.07812 59.55729Q346.60938 59.55729 347.15625 59.885414L346.79688 60.86979Q346.40625 60.635414 346.03125 60.635414Q345.67188 60.635414 345.39062 60.854164Q345.125 61.05729 345.01562 61.43229Q344.82812 61.99479 344.82812 62.65104L344.82812 65.916664L343.78125 65.916664ZM347.79688 65.916664L347.79688 57.322914L348.85938 57.322914L348.85938 62.229164L351.34375 59.697914L352.71875 59.697914L350.32812 61.99479L352.95312 65.916664L351.65625 65.916664L349.59375 62.729164L348.85938 63.447914L348.85938 65.916664L347.79688 65.916664Z" fill-rule="nonzero"/><path fill="#757575" d="M20.096874 37.55L20.096874 23.2375L25.4875 23.2375Q26.925 23.2375 27.675 23.3625Q28.721874 23.55 29.440624 24.05Q30.159374 24.534374 30.58125 25.425Q31.01875 26.315624 31.01875 27.378124Q31.01875 29.20625 29.846874 30.471874Q28.690624 31.721874 25.659374 31.721874L21.9875 31.721874L21.9875 37.55L20.096874 37.55ZM21.9875 30.034374L25.690624 30.034374Q27.51875 30.034374 28.284374 29.3625Q29.065624 28.675 29.065624 27.425Q29.065624 26.534374 28.6125 25.89375Q28.159374 25.253124 27.425 25.05Q26.940624 24.925 25.64375 24.925L21.9875 24.925L21.9875 30.034374ZM32.878124 25.253124L32.878124 23.2375L34.64375 23.2375L34.64375 25.253124L32.878124 25.253124ZM32.878124 37.55L32.878124 27.175L34.64375 27.175L34.64375 37.55L32.878124 37.55ZM36.55 38.409374L38.253124 38.659374Q38.3625 39.45625 38.846874 39.815624Q39.503124 40.3 40.64375 40.3Q41.8625 40.3 42.51875 39.815624Q43.190624 39.33125 43.425 38.45625Q43.565624 37.909374 43.55 36.190624Q42.39375 37.55 40.675 37.55Q38.534374 37.55 37.3625 36.003124Q36.190624 34.45625 36.190624 32.3Q36.190624 30.815624 36.721874 29.565624Q37.26875 28.315624 38.284374 27.628124Q39.315624 26.940624 40.690624 26.940624Q42.51875 26.940624 43.721874 28.425L43.721874 27.175L45.33125 27.175L45.33125 36.14375Q45.33125 38.565624 44.83125 39.565624Q44.346874 40.58125 43.26875 41.159374Q42.20625 41.753124 40.64375 41.753124Q38.8 41.753124 37.64375 40.925Q36.503124 40.096874 36.55 38.409374ZM38.003124 32.175Q38.003124 34.221874 38.815624 35.159374Q39.628124 36.096874 40.846874 36.096874Q42.05 36.096874 42.8625 35.159374Q43.690624 34.221874 43.690624 32.2375Q43.690624 30.33125 42.846874 29.3625Q42.003124 28.39375 40.815624 28.39375Q39.64375 28.39375 38.815624 29.346874Q38.003124 30.3 38.003124 32.175ZM56.753124 37.55L52.8 27.175L54.659374 27.175L56.89375 33.39375Q57.253124 34.39375 57.55 35.471874Q57.784374 34.659374 58.20625 33.503124L60.503124 27.175L62.315624 27.175L58.39375 37.55L56.753124 37.55ZM62.159374 34.45625L63.909374 34.175Q64.05 35.221874 64.72188 35.784374Q65.39375 36.33125 66.59688 36.33125Q67.8 36.33125 68.37813 35.846874Q68.97188 35.346874 68.97188 34.690624Q68.97188 34.096874 68.45625 33.753124Q68.09688 33.51875 66.65938 33.159374Q64.72188 32.659374 63.971874 32.315624Q63.2375 31.95625 62.846874 31.33125Q62.45625 30.690624 62.45625 29.925Q62.45625 29.2375 62.76875 28.64375Q63.096874 28.05 63.64375 27.659374Q64.05 27.3625 64.75313 27.159374Q65.47188 26.940624 66.28438 26.940624Q67.50313 26.940624 68.425 27.3Q69.34688 27.64375 69.78438 28.253124Q70.22188 28.846874 70.39375 29.846874L68.675 30.08125Q68.55 29.284374 67.9875 28.846874Q67.425 28.39375 66.40938 28.39375Q65.19063 28.39375 64.675 28.8Q64.15938 29.190624 64.15938 29.721874Q64.15938 30.065624 64.37813 30.346874Q64.58125 30.628124 65.05 30.815624Q65.31563 30.909374 66.59688 31.253124Q68.47188 31.753124 69.20625 32.08125Q69.94063 32.39375 70.3625 33.003124Q70.78438 33.596874 70.78438 34.503124Q70.78438 35.378124 70.26875 36.159374Q69.75313 36.940624 68.78438 37.3625Q67.81563 37.784374 66.59688 37.784374Q64.58125 37.784374 63.51875 36.940624Q62.45625 36.096874 62.159374 34.45625ZM78.45625 32.95625L80.2375 32.8Q80.3625 33.8625 80.81563 34.55Q81.28438 35.2375 82.25313 35.675Q83.2375 36.096874 84.47188 36.096874Q85.55 36.096874 86.37813 35.784374Q87.20625 35.45625 87.6125 34.89375Q88.01875 34.33125 88.01875 33.659374Q88.01875 32.9875 87.62813 32.4875Q87.2375 31.9875 86.34688 31.64375Q85.76875 31.409374 83.78438 30.940624Q81.81563 30.471874 81.03438 30.05Q80.00313 29.51875 79.50313 28.721874Q79.00313 27.925 79.00313 26.940624Q79.00313 25.846874 79.6125 24.909374Q80.22188 23.971874 81.40938 23.4875Q82.59688 22.9875 84.03438 22.9875Q85.62813 22.9875 86.84688 23.503124Q88.06563 24.01875 88.70625 25.01875Q89.3625 26.003124 89.40938 27.26875L87.59688 27.409374Q87.45625 26.05 86.6125 25.3625Q85.76875 24.659374 84.1125 24.659374Q82.39375 24.659374 81.59688 25.3Q80.81563 25.925 80.81563 26.8Q80.81563 27.58125 81.37813 28.08125Q81.925 28.58125 84.2375 29.096874Q86.55 29.6125 87.40938 30.003124Q88.65938 30.58125 89.25313 31.471874Q89.84688 32.346874 89.84688 33.503124Q89.84688 34.64375 89.19063 35.659374Q88.53438 36.675 87.3 37.2375Q86.08125 37.8 84.55 37.8Q82.6125 37.8 81.3 37.2375Q79.9875 36.659374 79.2375 35.51875Q78.4875 34.378124 78.45625 32.95625ZM91.8625 41.51875L91.8625 27.175L93.47188 27.175L93.47188 28.51875Q94.03438 27.7375 94.7375 27.346874Q95.45625 26.940624 96.47188 26.940624Q97.8 26.940624 98.81563 27.628124Q99.83125 28.315624 100.34688 29.565624Q100.87813 30.8 100.87813 32.284374Q100.87813 33.878124 100.3 35.159374Q99.7375 36.425 98.64375 37.1125Q97.55 37.784374 96.34688 37.784374Q95.47188 37.784374 94.76875 37.409374Q94.08125 37.034374 93.62813 36.471874L93.62813 41.51875L91.8625 41.51875ZM93.45625 32.425Q93.45625 34.425 94.26875 35.378124Q95.08125 36.33125 96.2375 36.33125Q97.40938 36.33125 98.2375 35.346874Q99.08125 34.3625 99.08125 32.26875Q99.08125 30.3 98.25313 29.315624Q97.44063 28.315624 96.31563 28.315624Q95.19063 28.315624 94.31563 29.378124Q93.45625 30.425 93.45625 32.425ZM109.64375 36.26875Q108.65938 37.096874 107.75313 37.440624Q106.84688 37.784374 105.81563 37.784374Q104.1125 37.784374 103.19063 36.95625Q102.26875 36.1125 102.26875 34.815624Q102.26875 34.05 102.6125 33.425Q102.97188 32.8 103.53438 32.425Q104.09688 32.034374 104.8 31.83125Q105.31563 31.70625 106.3625 31.565624Q108.4875 31.315624 109.4875 30.971874Q109.50313 30.6125 109.50313 30.503124Q109.50313 29.440624 109.00313 28.9875Q108.33125 28.39375 107.00313 28.39375Q105.75313 28.39375 105.15938 28.83125Q104.58125 29.26875 104.3 30.378124L102.58125 30.14375Q102.81563 29.034374 103.34688 28.3625Q103.87813 27.675 104.89375 27.315624Q105.90938 26.940624 107.25313 26.940624Q108.58125 26.940624 109.40938 27.253124Q110.2375 27.565624 110.62813 28.05Q111.01875 28.51875 111.175 29.2375Q111.26875 29.690624 111.26875 30.8625L111.26875 33.20625Q111.26875 35.659374 111.37813 36.315624Q111.4875 36.95625 111.83125 37.55L109.9875 37.55Q109.72188 37.003124 109.64375 36.26875ZM109.4875 32.346874Q108.53438 32.7375 106.6125 33.003124Q105.53438 33.159374 105.08125 33.3625Q104.64375 33.55 104.39375 33.925Q104.14375 34.3 104.14375 34.76875Q104.14375 35.471874 104.675 35.940624Q105.20625 36.409374 106.2375 36.409374Q107.25313 36.409374 108.03438 35.971874Q108.83125 35.51875 109.20625 34.753124Q109.4875 34.14375 109.4875 32.9875L109.4875 32.346874ZM113.84688 37.55L113.84688 27.175L115.425 27.175L115.425 28.753124Q116.03438 27.64375 116.55 27.3Q117.06563 26.940624 117.675 26.940624Q118.56563 26.940624 119.4875 27.503124L118.87813 29.14375Q118.2375 28.753124 117.59688 28.753124Q117.01875 28.753124 116.55 29.1125Q116.09688 29.45625 115.89375 30.065624Q115.6125 31.003124 115.6125 32.1125L115.6125 37.55L113.84688 37.55ZM120.87813 37.55L120.87813 23.2375L122.64375 23.2375L122.64375 31.39375L126.8 27.175L129.06563 27.175L125.1125 31.01875L129.47188 37.55L127.3 37.55L123.87813 32.253124L122.64375 33.440624L122.64375 37.55L120.87813 37.55ZM140.22188 41.753124Q138.76875 39.925 137.76875 37.471874Q136.76875 35.003124 136.76875 32.3625Q136.76875 30.034374 137.51875 27.909374Q138.39375 25.440624 140.22188 22.9875L141.4875 22.9875Q140.3 25.01875 139.925 25.89375Q139.33125 27.2375 138.9875 28.70625Q138.56563 30.534374 138.56563 32.378124Q138.56563 37.065624 141.4875 41.753124L140.22188 41.753124ZM143.8625 41.51875L143.8625 27.175L145.47188 27.175L145.47188 28.51875Q146.03438 27.7375 146.7375 27.346874Q147.45625 26.940624 148.47188 26.940624Q149.8 26.940624 150.81563 27.628124Q151.83125 28.315624 152.34688 29.565624Q152.87813 30.8 152.87813 32.284374Q152.87813 33.878124 152.3 35.159374Q151.7375 36.425 150.64375 37.1125Q149.55 37.784374 148.34688 37.784374Q147.47188 37.784374 146.76875 37.409374Q146.08125 37.034374 145.62813 36.471874L145.62813 41.51875L143.8625 41.51875ZM145.45625 32.425Q145.45625 34.425 146.26875 35.378124Q147.08125 36.33125 148.2375 36.33125Q149.40938 36.33125 150.2375 35.346874Q151.08125 34.3625 151.08125 32.26875Q151.08125 30.3 150.25313 29.315624Q149.44063 28.315624 148.31563 28.315624Q147.19063 28.315624 146.31563 29.378124Q145.45625 30.425 145.45625 32.425ZM161.64375 36.26875Q160.65938 37.096874 159.75313 37.440624Q158.84688 37.784374 157.81563 37.784374Q156.1125 37.784374 155.19063 36.95625Q154.26875 36.1125 154.26875 34.815624Q154.26875 34.05 154.6125 33.425Q154.97188 32.8 155.53438 32.425Q156.09688 32.034374 156.8 31.83125Q157.31563 31.70625 158.3625 31.565624Q160.4875 31.315624 161.4875 30.971874Q161.50313 30.6125 161.50313 30.503124Q161.50313 29.440624 161.00313 28.9875Q160.33125 28.39375 159.00313 28.39375Q157.75313 28.39375 157.15938 28.83125Q156.58125 29.26875 156.3 30.378124L154.58125 30.14375Q154.81563 29.034374 155.34688 28.3625Q155.87813 27.675 156.89375 27.315624Q157.90938 26.940624 159.25313 26.940624Q160.58125 26.940624 161.40938 27.253124Q162.2375 27.565624 162.62813 28.05Q163.01875 28.51875 163.175 29.2375Q163.26875 29.690624 163.26875 30.8625L163.26875 33.20625Q163.26875 35.659374 163.37813 36.315624Q163.4875 36.95625 163.83125 37.55L161.9875 37.55Q161.72188 37.003124 161.64375 36.26875ZM161.4875 32.346874Q160.53438 32.7375 158.6125 33.003124Q157.53438 33.159374 157.08125 33.3625Q156.64375 33.55 156.39375 33.925Q156.14375 34.3 156.14375 34.76875Q156.14375 35.471874 156.675 35.940624Q157.20625 36.409374 158.2375 36.409374Q159.25313 36.409374 160.03438 35.971874Q160.83125 35.51875 161.20625 34.753124Q161.4875 34.14375 161.4875 32.9875L161.4875 32.346874ZM165.55 38.409374L167.25313 38.659374Q167.3625 39.45625 167.84688 39.815624Q168.50313 40.3 169.64375 40.3Q170.8625 40.3 171.51875 39.815624Q172.19063 39.33125 172.425 38.45625Q172.56563 37.909374 172.55 36.190624Q171.39375 37.55 169.675 37.55Q167.53438 37.55 166.3625 36.003124Q165.19063 34.45625 165.19063 32.3Q165.19063 30.815624 165.72188 29.565624Q166.26875 28.315624 167.28438 27.628124Q168.31563 26.940624 169.69063 26.940624Q171.51875 26.940624 172.72188 28.425L172.72188 27.175L174.33125 27.175L174.33125 36.14375Q174.33125 38.565624 173.83125 39.565624Q173.34688 40.58125 172.26875 41.159374Q171.20625 41.753124 169.64375 41.753124Q167.8 41.753124 166.64375 40.925Q165.50313 40.096874 165.55 38.409374ZM167.00313 32.175Q167.00313 34.221874 167.81563 35.159374Q168.62813 36.096874 169.84688 36.096874Q171.05 36.096874 171.8625 35.159374Q172.69063 34.221874 172.69063 32.2375Q172.69063 30.33125 171.84688 29.3625Q171.00313 28.39375 169.81563 28.39375Q168.64375 28.39375 167.81563 29.346874Q167.00313 30.3 167.00313 32.175ZM183.97188 34.20625L185.78438 34.440624Q185.3625 36.01875 184.19063 36.909374Q183.03438 37.784374 181.22188 37.784374Q178.95625 37.784374 177.6125 36.39375Q176.28438 34.9875 176.28438 32.45625Q176.28438 29.83125 177.62813 28.39375Q178.97188 26.940624 181.12813 26.940624Q183.20625 26.940624 184.51875 28.3625Q185.84688 29.76875 185.84688 32.346874Q185.84688 32.503124 185.83125 32.815624L178.09688 32.815624Q178.19063 34.51875 179.06563 35.425Q179.94063 36.33125 181.2375 36.33125Q182.20625 36.33125 182.87813 35.83125Q183.56563 35.315624 183.97188 34.20625ZM178.19063 31.3625L183.9875 31.3625Q183.87813 30.065624 183.33125 29.409374Q182.4875 28.39375 181.14375 28.39375Q179.94063 28.39375 179.1125 29.20625Q178.28438 30.003124 178.19063 31.3625ZM193.83125 37.55L193.83125 23.2375L195.58125 23.2375L195.58125 37.55L193.83125 37.55ZM197.87813 25.253124L197.87813 23.2375L199.64375 23.2375L199.64375 25.253124L197.87813 25.253124ZM197.87813 37.55L197.87813 27.175L199.64375 27.175L199.64375 37.55L197.87813 37.55ZM201.8625 37.55L201.8625 27.175L203.45625 27.175L203.45625 28.659374Q204.59688 26.940624 206.75313 26.940624Q207.69063 26.940624 208.47188 27.284374Q209.26875 27.6125 209.65938 28.159374Q210.05 28.70625 210.20625 29.45625Q210.3 29.95625 210.3 31.175L210.3 37.55L208.53438 37.55L208.53438 31.2375Q208.53438 30.159374 208.33125 29.628124Q208.12813 29.096874 207.59688 28.784374Q207.08125 28.471874 206.37813 28.471874Q205.25313 28.471874 204.44063 29.190624Q203.62813 29.89375 203.62813 31.878124L203.62813 37.55L201.8625 37.55ZM211.87813 37.55L211.87813 23.2375L213.64375 23.2375L213.64375 31.39375L217.8 27.175L220.06563 27.175L216.1125 31.01875L220.47188 37.55L218.3 37.55L214.87813 32.253124L213.64375 33.440624L213.64375 37.55L211.87813 37.55ZM221.15938 34.45625L222.90938 34.175Q223.05 35.221874 223.72188 35.784374Q224.39375 36.33125 225.59688 36.33125Q226.8 36.33125 227.37813 35.846874Q227.97188 35.346874 227.97188 34.690624Q227.97188 34.096874 227.45625 33.753124Q227.09688 33.51875 225.65938 33.159374Q223.72188 32.659374 222.97188 32.315624Q222.2375 31.95625 221.84688 31.33125Q221.45625 30.690624 221.45625 29.925Q221.45625 29.2375 221.76875 28.64375Q222.09688 28.05 222.64375 27.659374Q223.05 27.3625 223.75313 27.159374Q224.47188 26.940624 225.28438 26.940624Q226.50313 26.940624 227.425 27.3Q228.34688 27.64375 228.78438 28.253124Q229.22188 28.846874 229.39375 29.846874L227.675 30.08125Q227.55 29.284374 226.9875 28.846874Q226.425 28.39375 225.40938 28.39375Q224.19063 28.39375 223.675 28.8Q223.15938 29.190624 223.15938 29.721874Q223.15938 30.065624 223.37813 30.346874Q223.58125 30.628124 224.05 30.815624Q224.31563 30.909374 225.59688 31.253124Q227.47188 31.753124 228.20625 32.08125Q228.94063 32.39375 229.3625 33.003124Q229.78438 33.596874 229.78438 34.503124Q229.78438 35.378124 229.26875 36.159374Q228.75313 36.940624 227.78438 37.3625Q226.81563 37.784374 225.59688 37.784374Q223.58125 37.784374 222.51875 36.940624Q221.45625 36.096874 221.15938 34.45625ZM244.97188 34.20625L246.78438 34.440624Q246.3625 36.01875 245.19063 36.909374Q244.03438 37.784374 242.22188 37.784374Q239.95625 37.784374 238.6125 36.39375Q237.28438 34.9875 237.28438 32.45625Q237.28438 29.83125 238.62813 28.39375Q239.97188 26.940624 242.12813 26.940624Q244.20625 26.940624 245.51875 28.3625Q246.84688 29.76875 246.84688 32.346874Q246.84688 32.503124 246.83125 32.815624L239.09688 32.815624Q239.19063 34.51875 240.06563 35.425Q240.94063 36.33125 242.2375 36.33125Q243.20625 36.33125 243.87813 35.83125Q244.56563 35.315624 244.97188 34.20625ZM239.19063 31.3625L244.9875 31.3625Q244.87813 30.065624 244.33125 29.409374Q243.4875 28.39375 242.14375 28.39375Q240.94063 28.39375 240.1125 29.20625Q239.28438 30.003124 239.19063 31.3625ZM248.8625 37.55L248.8625 27.175L250.45625 27.175L250.45625 28.659374Q251.59688 26.940624 253.75313 26.940624Q254.69063 26.940624 255.47188 27.284374Q256.26874 27.6125 256.65936 28.159374Q257.05 28.70625 257.20624 29.45625Q257.3 29.95625 257.3 31.175L257.3 37.55L255.53438 37.55L255.53438 31.2375Q255.53438 30.159374 255.33125 29.628124Q255.12813 29.096874 254.59688 28.784374Q254.08125 28.471874 253.37813 28.471874Q252.25313 28.471874 251.44063 29.190624Q250.62813 29.89375 250.62813 31.878124L250.62813 37.55L248.8625 37.55ZM271.59686 37.55L271.59686 36.2375Q270.6125 37.784374 268.6906 37.784374Q267.45624 37.784374 266.40936 37.096874Q265.3781 36.409374 264.8 35.190624Q264.2375 33.971874 264.2375 32.378124Q264.2375 30.815624 264.7531 29.55Q265.26874 28.284374 266.3 27.6125Q267.34686 26.940624 268.6125 26.940624Q269.55 26.940624 270.28436 27.346874Q271.01874 27.7375 271.4875 28.3625L271.4875 23.2375L273.22186 23.2375L273.22186 37.55L271.59686 37.55ZM266.03436 32.378124Q266.03436 34.3625 266.8781 35.346874Q267.72186 36.33125 268.8625 36.33125Q270.01874 36.33125 270.8156 35.39375Q271.6281 34.45625 271.6281 32.51875Q271.6281 30.39375 270.8 29.39375Q269.9875 28.39375 268.78436 28.39375Q267.6125 28.39375 266.8156 29.3625Q266.03436 30.315624 266.03436 32.378124ZM282.64374 36.26875Q281.65936 37.096874 280.7531 37.440624Q279.84686 37.784374 278.8156 37.784374Q277.1125 37.784374 276.1906 36.95625Q275.26874 36.1125 275.26874 34.815624Q275.26874 34.05 275.6125 33.425Q275.97186 32.8 276.53436 32.425Q277.09686 32.034374 277.8 31.83125Q278.3156 31.70625 279.3625 31.565624Q281.4875 31.315624 282.4875 30.971874Q282.5031 30.6125 282.5031 30.503124Q282.5031 29.440624 282.0031 28.9875Q281.33124 28.39375 280.0031 28.39375Q278.7531 28.39375 278.15936 28.83125Q277.58124 29.26875 277.3 30.378124L275.58124 30.14375Q275.8156 29.034374 276.34686 28.3625Q276.8781 27.675 277.89374 27.315624Q278.90936 26.940624 280.2531 26.940624Q281.58124 26.940624 282.40936 27.253124Q283.2375 27.565624 283.6281 28.05Q284.01874 28.51875 284.175 29.2375Q284.26874 29.690624 284.26874 30.8625L284.26874 33.20625Q284.26874 35.659374 284.3781 36.315624Q284.4875 36.95625 284.83124 37.55L282.9875 37.55Q282.72186 37.003124 282.64374 36.26875ZM282.4875 32.346874Q281.53436 32.7375 279.6125 33.003124Q278.53436 33.159374 278.08124 33.3625Q277.64374 33.55 277.39374 33.925Q277.14374 34.3 277.14374 34.76875Q277.14374 35.471874 277.675 35.940624Q278.20624 36.409374 279.2375 36.409374Q280.2531 36.409374 281.03436 35.971874Q281.83124 35.51875 282.20624 34.753124Q282.4875 34.14375 282.4875 32.9875L282.4875 32.346874ZM290.70624 35.971874L290.95624 37.534374Q290.22186 37.690624 289.6281 37.690624Q288.675 37.690624 288.14374 37.39375Q287.6281 37.08125 287.40936 36.596874Q287.1906 36.096874 287.1906 34.51875L287.1906 28.55L285.90936 28.55L285.90936 27.175L287.1906 27.175L287.1906 24.6125L288.9406 23.55L288.9406 27.175L290.70624 27.175L290.70624 28.55L288.9406 28.55L288.9406 34.6125Q288.9406 35.3625 289.03436 35.58125Q289.1281 35.784374 289.33124 35.925Q289.55 36.05 289.9406 36.05Q290.22186 36.05 290.70624 35.971874ZM299.64374 36.26875Q298.65936 37.096874 297.7531 37.440624Q296.84686 37.784374 295.8156 37.784374Q294.1125 37.784374 293.1906 36.95625Q292.26874 36.1125 292.26874 34.815624Q292.26874 34.05 292.6125 33.425Q292.97186 32.8 293.53436 32.425Q294.09686 32.034374 294.8 31.83125Q295.3156 31.70625 296.3625 31.565624Q298.4875 31.315624 299.4875 30.971874Q299.5031 30.6125 299.5031 30.503124Q299.5031 29.440624 299.0031 28.9875Q298.33124 28.39375 297.0031 28.39375Q295.7531 28.39375 295.15936 28.83125Q294.58124 29.26875 294.3 30.378124L292.58124 30.14375Q292.8156 29.034374 293.34686 28.3625Q293.8781 27.675 294.89374 27.315624Q295.90936 26.940624 297.2531 26.940624Q298.58124 26.940624 299.40936 27.253124Q300.2375 27.565624 300.6281 28.05Q301.01874 28.51875 301.175 29.2375Q301.26874 29.690624 301.26874 30.8625L301.26874 33.20625Q301.26874 35.659374 301.3781 36.315624Q301.4875 36.95625 301.83124 37.55L299.9875 37.55Q299.72186 37.003124 299.64374 36.26875ZM299.4875 32.346874Q298.53436 32.7375 296.6125 33.003124Q295.53436 33.159374 295.08124 33.3625Q294.64374 33.55 294.39374 33.925Q294.14374 34.3 294.14374 34.76875Q294.14374 35.471874 294.675 35.940624Q295.20624 36.409374 296.2375 36.409374Q297.2531 36.409374 298.03436 35.971874Q298.83124 35.51875 299.20624 34.753124Q299.4875 34.14375 299.4875 32.9875L299.4875 32.346874ZM303.15936 34.45625L304.90936 34.175Q305.05 35.221874 305.72186 35.784374Q306.39374 36.33125 307.59686 36.33125Q308.8 36.33125 309.3781 35.846874Q309.97186 35.346874 309.97186 34.690624Q309.97186 34.096874 309.45624 33.753124Q309.09686 33.51875 307.65936 33.159374Q305.72186 32.659374 304.97186 32.315624Q304.2375 31.95625 303.84686 31.33125Q303.45624 30.690624 303.45624 29.925Q303.45624 29.2375 303.76874 28.64375Q304.09686 28.05 304.64374 27.659374Q305.05 27.3625 305.7531 27.159374Q306.47186 26.940624 307.28436 26.940624Q308.5031 26.940624 309.425 27.3Q310.34686 27.64375 310.78436 28.253124Q311.22186 28.846874 311.39374 29.846874L309.675 30.08125Q309.55 29.284374 308.9875 28.846874Q308.425 28.39375 307.40936 28.39375Q306.1906 28.39375 305.675 28.8Q305.15936 29.190624 305.15936 29.721874Q305.15936 30.065624 305.3781 30.346874Q305.58124 30.628124 306.05 30.815624Q306.3156 30.909374 307.59686 31.253124Q309.47186 31.753124 310.20624 32.08125Q310.9406 32.39375 311.3625 33.003124Q311.78436 33.596874 311.78436 34.503124Q311.78436 35.378124 311.26874 36.159374Q310.7531 36.940624 309.78436 37.3625Q308.8156 37.784374 307.59686 37.784374Q305.58124 37.784374 304.51874 36.940624Q303.45624 36.096874 303.15936 34.45625ZM320.97186 34.20625L322.78436 34.440624Q322.3625 36.01875 321.1906 36.909374Q320.03436 37.784374 318.22186 37.784374Q315.95624 37.784374 314.6125 36.39375Q313.28436 34.9875 313.28436 32.45625Q313.28436 29.83125 314.6281 28.39375Q315.97186 26.940624 318.1281 26.940624Q320.20624 26.940624 321.51874 28.3625Q322.84686 29.76875 322.84686 32.346874Q322.84686 32.503124 322.83124 32.815624L315.09686 32.815624Q315.1906 34.51875 316.0656 35.425Q316.9406 36.33125 318.2375 36.33125Q319.20624 36.33125 319.8781 35.83125Q320.5656 35.315624 320.97186 34.20625ZM315.1906 31.3625L320.9875 31.3625Q320.8781 30.065624 320.33124 29.409374Q319.4875 28.39375 318.14374 28.39375Q316.9406 28.39375 316.1125 29.20625Q315.28436 30.003124 315.1906 31.3625ZM328.70624 35.971874L328.95624 37.534374Q328.22186 37.690624 327.6281 37.690624Q326.675 37.690624 326.14374 37.39375Q325.6281 37.08125 325.40936 36.596874Q325.1906 36.096874 325.1906 34.51875L325.1906 28.55L323.90936 28.55L323.90936 27.175L325.1906 27.175L325.1906 24.6125L326.9406 23.55L326.9406 27.175L328.70624 27.175L328.70624 28.55L326.9406 28.55L326.9406 34.6125Q326.9406 35.3625 327.03436 35.58125Q327.1281 35.784374 327.33124 35.925Q327.55 36.05 327.9406 36.05Q328.22186 36.05 328.70624 35.971874ZM332.01874 41.753124L330.76874 41.753124Q333.675 37.065624 333.675 32.378124Q333.675 30.534374 333.26874 28.7375Q332.925 27.26875 332.33124 25.925Q331.95624 25.034374 330.76874 22.9875L332.01874 22.9875Q333.8625 25.440624 334.7375 27.909374Q335.4875 30.034374 335.4875 32.3625Q335.4875 35.003124 334.47186 37.471874Q333.47186 39.925 332.01874 41.753124Z" fill-rule="nonzero"/></svg>