<svg version="1.1" viewBox="0.0 0.0 600.0 371.0" fill="none" stroke="none" stroke-linecap="square" stroke-miterlimit="10" width="600" height="371" xmlns:xlink="http://www.w3.org/1999/xlink" xmlns="http://www.w3.org/2000/svg"><path fill="#ffffff" d="M0 0L600.0 0L600.0 371.0L0 371.0L0 0Z" fill-rule="nonzero"/><path stroke="#cccccc" stroke-width="1.0" stroke-linecap="butt" d="M77.5 88.5L77.5 300.5" fill-rule="nonzero"/><path stroke="#cccccc" stroke-width="1.0" stroke-linecap="butt" d="M203.5 88.5L203.5 300.5" fill-rule="nonzero"/><path stroke="#cccccc" stroke-width="1.0" stroke-linecap="butt" d="M329.5 88.5L329.5 300.5" fill-rule="nonzero"/><path stroke="#cccccc" stroke-width="1.0" stroke-linecap="butt" d="M455.5 88.5L455.5 300.5" fill-rule="nonzero"/><path stroke="#cccccc" stroke-width="1.0" stroke-linecap="butt" d="M581.5 88.5L581.5 300.5" fill-rule="nonzero"/><path stroke="#333333" stroke-width="1.0" stroke-linecap="butt" d="M77.5 300.5L581.5 300.5" fill-rule="nonzero"/><path stroke="#cccccc" stroke-width="1.0" stroke-linecap="butt" d="M77.5 247.5L581.5 247.5" fill-rule="nonzero"/><path stroke="#cccccc" stroke-width="1.0" stroke-linecap="butt" d="M77.5 194.5L581.5 194.5" fill-rule="nonzero"/><path stroke="#cccccc" stroke-width="1.0" stroke-linecap="butt" d="M77.5 141.5L581.5 141.5" fill-rule="nonzero"/><path stroke="#cccccc" stroke-width="1.0" stroke-linecap="butt" d="M77.5 88.5L581.5 88.5" fill-rule="nonzero"/><clipPath id="id_0"><path d="M77.55 88.28333L581.45 88.28333L581.45 300.45L77.55 300.45L77.55 88.28333Z" clip-rule="nonzero"/></clipPath><path stroke="#4285f4" stroke-width="2.0" stroke-linecap="butt" clip-path="url(#id_0)" d="M77.55 93.5875L203.525 112.6825L329.5 96.77L455.475 109.5L581.45 95.70917" fill-rule="nonzero"/><path stroke="#ea4335" stroke-width="2.0" stroke-linecap="butt" clip-path="url(#id_0)" d="M77.55 254.83417L203.525 256.95584L329.5 259.0775L455.475 262.26L581.45 259.0775" fill-rule="nonzero"/><path fill="#000000" fill-opacity="0.0" clip-path="url(#id_0)" d="M80.55 93.5875C80.55 95.244354 79.206856 96.5875 77.55 96.5875C75.89314 96.5875 74.55 95.244354 74.55 93.5875C74.55 91.93065 75.89314 90.5875 77.55 90.5875C79.206856 90.5875 80.55 91.93065 80.55 93.5875Z" fill-rule="nonzero"/><path fill="#000000" fill-opacity="0.0" clip-path="url(#id_0)" d="M206.525 112.6825C206.525 114.339355 205.18185 115.6825 203.525 115.6825C201.86815 115.6825 200.525 114.339355 200.525 112.6825C200.525 111.02564 201.86815 109.6825 203.525 109.6825C205.18185 109.6825 206.525 111.02564 206.525 112.6825Z" fill-rule="nonzero"/><path fill="#000000" fill-opacity="0.0" clip-path="url(#id_0)" d="M332.5 96.77C332.5 98.42686 331.15686 99.77 329.5 99.77C327.84314 99.77 326.5 98.42686 326.5 96.77C326.5 95.113144 327.84314 93.77 329.5 93.77C331.15686 93.77 332.5 95.113144 332.5 96.77Z" fill-rule="nonzero"/><path fill="#000000" fill-opacity="0.0" clip-path="url(#id_0)" d="M458.475 109.5C458.475 111.15685 457.13187 112.5 455.475 112.5C453.81815 112.5 452.475 111.15685 452.475 109.5C452.475 107.84315 453.81815 106.5 455.475 106.5C457.13187 106.5 458.475 107.84315 458.475 109.5Z" fill-rule="nonzero"/><path fill="#000000" fill-opacity="0.0" clip-path="url(#id_0)" d="M584.45 95.70917C584.45 97.36602 583.1069 98.70917 581.45 98.70917C579.79315 98.70917 578.45 97.36602 578.45 95.70917C578.45 94.052315 579.79315 92.70917 581.45 92.70917C583.1069 92.70917 584.45 94.052315 584.45 95.70917Z" fill-rule="nonzero"/><path fill="#000000" fill-opacity="0.0" clip-path="url(#id_0)" d="M80.55 254.83417C80.55 256.49103 79.206856 257.83417 77.55 257.83417C75.89314 257.83417 74.55 256.49103 74.55 254.83417C74.55 253.1773 75.89314 251.83417 77.55 251.83417C79.206856 251.83417 80.55 253.1773 80.55 254.83417Z" fill-rule="nonzero"/><path fill="#000000" fill-opacity="0.0" clip-path="url(#id_0)" d="M206.525 256.95584C206.525 258.6127 205.18185 259.95584 203.525 259.95584C201.86815 259.95584 200.525 258.6127 200.525 256.95584C200.525 255.29898 201.86815 253.95583 203.525 253.95583C205.18185 253.95583 206.525 255.29898 206.525 256.95584Z" fill-rule="nonzero"/><path fill="#000000" fill-opacity="0.0" clip-path="url(#id_0)" d="M332.5 259.0775C332.5 260.73434 331.15686 262.0775 329.5 262.0775C327.84314 262.0775 326.5 260.73434 326.5 259.0775C326.5 257.42065 327.84314 256.0775 329.5 256.0775C331.15686 256.0775 332.5 257.42065 332.5 259.0775Z" fill-rule="nonzero"/><path fill="#000000" fill-opacity="0.0" clip-path="url(#id_0)" d="M458.475 262.26C458.475 263.91684 457.13187 265.26 455.475 265.26C453.81815 265.26 452.475 263.91684 452.475 262.26C452.475 260.60315 453.81815 259.26 455.475 259.26C457.13187 259.26 458.475 260.60315 458.475 262.26Z" fill-rule="nonzero"/><path fill="#000000" fill-opacity="0.0" clip-path="url(#id_0)" d="M584.45 259.0775C584.45 260.73434 583.1069 262.0775 581.45 262.0775C579.79315 262.0775 578.45 260.73434 578.45 259.0775C578.45 257.42065 579.79315 256.0775 581.45 256.0775C583.1069 256.0775 584.45 257.42065 584.45 259.0775Z" fill-rule="nonzero"/><path fill="#000000" d="M303.29688 349.45L303.29688 343.23126L304.23438 343.23126L304.23438 344.10626Q304.92188 343.09064 306.21875 343.09064Q306.78125 343.09064 307.25 343.29376Q307.73438 343.4969 307.96875 343.825Q308.20312 344.15314 308.29688 344.59064Q308.34375 344.8875 308.34375 345.6219L308.34375 349.45L307.29688 349.45L307.29688 345.66876Q307.29688 345.0125 307.17188 344.7Q307.04688 344.3875 306.73438 344.2Q306.42188 343.9969 306.0 343.9969Q305.32812 343.9969 304.82812 344.4344Q304.34375 344.85626 304.34375 346.04376L304.34375 349.45L303.29688 349.45ZM314.4375 349.45L312.53125 343.23126L313.625 343.23126L314.60938 346.825L314.98438 348.15314Q315.01562 348.0594 315.3125 346.8719L316.29688 343.23126L317.375 343.23126L318.3125 346.84064L318.625 348.02814L318.98438 346.825L320.04688 343.23126L321.07812 343.23126L319.125 349.45L318.03125 349.45L317.04688 345.71564L316.79688 344.66876L315.54688 349.45L314.4375 349.45ZM321.90625 346.34064Q321.90625 344.60626 322.85938 343.77814Q323.65625 343.09064 324.8125 343.09064Q326.09375 343.09064 326.90625 343.9344Q327.73438 344.7625 327.73438 346.2469Q327.73438 347.45 327.375 348.1375Q327.01562 348.825 326.3125 349.21564Q325.625 349.59064 324.8125 349.59064Q323.51562 349.59064 322.70312 348.7625Q321.90625 347.91876 321.90625 346.34064ZM322.98438 346.34064Q322.98438 347.52814 323.5 348.1219Q324.03125 348.71564 324.8125 348.71564Q325.60938 348.71564 326.125 348.1219Q326.64062 347.52814 326.64062 346.3094Q326.64062 345.15314 326.10938 344.5594Q325.59375 343.96564 324.8125 343.96564Q324.03125 343.96564 323.5 344.5594Q322.98438 345.1375 322.98438 346.34064ZM329.28125 349.45L329.28125 343.23126L330.23438 343.23126L330.23438 344.16876Q330.59375 343.5125 330.89062 343.3094Q331.20312 343.09064 331.57812 343.09064Q332.10938 343.09064 332.65625 343.41876L332.29688 344.40314Q331.90625 344.16876 331.53125 344.16876Q331.17188 344.16876 330.89062 344.3875Q330.625 344.59064 330.51562 344.96564Q330.32812 345.52814 330.32812 346.1844L330.32812 349.45L329.28125 349.45ZM333.29688 349.45L333.29688 340.85626L334.35938 340.85626L334.35938 345.7625L336.84375 343.23126L338.21875 343.23126L335.82812 345.52814L338.45312 349.45L337.15625 349.45L335.09375 346.2625L334.35938 346.98126L334.35938 349.45L333.29688 349.45ZM343.54688 347.45L344.64062 347.575Q344.39062 348.52814 343.6875 349.0594Q342.98438 349.59064 341.90625 349.59064Q340.54688 349.59064 339.73438 348.7469Q338.9375 347.90314 338.9375 346.3875Q338.9375 344.825 339.75 343.96564Q340.5625 343.09064 341.84375 343.09064Q343.09375 343.09064 343.875 343.9344Q344.67188 344.77814 344.67188 346.325Q344.67188 346.41876 344.67188 346.60626L340.03125 346.60626Q340.09375 347.6375 340.60938 348.1844Q341.125 348.71564 341.90625 348.71564Q342.48438 348.71564 342.89062 348.41876Q343.3125 348.10626 343.54688 347.45ZM340.09375 345.7469L343.5625 345.7469Q343.5 344.95 343.17188 344.5594Q342.65625 343.95 341.85938 343.95Q341.125 343.95 340.625 344.4344Q340.14062 344.91876 340.09375 345.7469ZM346.28125 349.45L346.28125 343.23126L347.23438 343.23126L347.23438 344.16876Q347.59375 343.5125 347.89062 343.3094Q348.20312 343.09064 348.57812 343.09064Q349.10938 343.09064 349.65625 343.41876L349.29688 344.40314Q348.90625 344.16876 348.53125 344.16876Q348.17188 344.16876 347.89062 344.3875Q347.625 344.59064 347.51562 344.96564Q347.32812 345.52814 347.32812 346.1844L347.32812 349.45L346.28125 349.45ZM349.875 347.59064L350.90625 347.4344Q351.0 348.0594 351.39062 348.3875Q351.79688 348.71564 352.53125 348.71564Q353.25 348.71564 353.59375 348.4344Q353.95312 348.1375 353.95312 347.73126Q353.95312 347.3719 353.64062 347.16876Q353.42188 347.02814 352.5625 346.8094Q351.40625 346.5125 350.95312 346.3094Q350.51562 346.09064 350.28125 345.71564Q350.04688 345.34064 350.04688 344.8719Q350.04688 344.46564 350.23438 344.10626Q350.42188 343.7469 350.75 343.5125Q351.0 343.34064 351.42188 343.21564Q351.84375 343.09064 352.34375 343.09064Q353.0625 343.09064 353.60938 343.3094Q354.17188 343.5125 354.4375 343.8719Q354.70312 344.23126 354.79688 344.825L353.76562 344.96564Q353.70312 344.4969 353.35938 344.23126Q353.03125 343.95 352.40625 343.95Q351.6875 343.95 351.375 344.2Q351.0625 344.4344 351.0625 344.7625Q351.0625 344.96564 351.1875 345.1219Q351.32812 345.29376 351.59375 345.40314Q351.75 345.46564 352.53125 345.66876Q353.65625 345.98126 354.09375 346.16876Q354.53125 346.35626 354.78125 346.71564Q355.03125 347.075 355.03125 347.6219Q355.03125 348.15314 354.71875 348.6219Q354.42188 349.075 353.84375 349.34064Q353.26562 349.59064 352.53125 349.59064Q351.3125 349.59064 350.67188 349.09064Q350.04688 348.575 349.875 347.59064Z" fill-rule="nonzero"/><path fill="#000000" d="M28.612513 218.77292L29.534388 218.61667Q29.628138 219.0698 29.628138 219.41354Q29.628138 219.99167 29.456263 220.30417Q29.268763 220.61667 28.971888 220.7573Q28.675013 220.8823 27.721888 220.8823L24.143763 220.8823L24.143763 221.64792L23.331263 221.64792L23.331263 220.8823L21.784388 220.8823L21.159388 219.83542L23.331263 219.83542L23.331263 218.77292L24.143763 218.77292L24.143763 219.83542L27.784388 219.83542Q28.237513 219.83542 28.362513 219.78854Q28.487513 219.72604 28.565638 219.60104Q28.643763 219.47604 28.643763 219.24167Q28.643763 219.05417 28.612513 218.77292ZM22.175013 218.0698L20.956263 218.0698L20.956263 217.0073L22.175013 217.0073L22.175013 218.0698ZM29.550013 218.0698L23.331263 218.0698L23.331263 217.0073L29.550013 217.0073L29.550013 218.0698ZM29.550013 215.0698L23.331263 215.0698L23.331263 214.1323L24.206263 214.1323Q23.737513 213.83542 23.471888 213.35104Q23.190638 212.86667 23.190638 212.24167Q23.190638 211.55417 23.471888 211.11667Q23.753138 210.66354 24.268763 210.49167Q23.190638 209.74167 23.190638 208.5698Q23.190638 207.6323 23.706263 207.14792Q24.206263 206.64792 25.284388 206.64792L29.550013 206.64792L29.550013 207.6948L25.628138 207.6948Q25.003138 207.6948 24.721888 207.80417Q24.440638 207.89792 24.268763 208.16354Q24.096888 208.42917 24.096888 208.80417Q24.096888 209.46042 24.534388 209.89792Q24.971888 210.3198 25.940638 210.3198L29.550013 210.3198L29.550013 211.3823L25.503138 211.3823Q24.800013 211.3823 24.456263 211.64792Q24.096888 211.89792 24.096888 212.47604Q24.096888 212.92917 24.331263 213.30417Q24.565638 213.67917 25.018763 213.85104Q25.471888 214.02292 26.315638 214.02292L29.550013 214.02292L29.550013 215.0698ZM27.550013 199.8198L27.675013 198.72604Q28.628138 198.97604 29.159388 199.67917Q29.690638 200.3823 29.690638 201.46042Q29.690638 202.8198 28.846888 203.6323Q28.003138 204.42917 26.487513 204.42917Q24.925013 204.42917 24.065638 203.61667Q23.190638 202.80417 23.190638 201.52292Q23.190638 200.27292 24.034388 199.49167Q24.878138 198.6948 26.425013 198.6948Q26.518763 198.6948 26.706263 198.6948L26.706263 203.33542Q27.737513 203.27292 28.284388 202.7573Q28.815638 202.24167 28.815638 201.46042Q28.815638 200.8823 28.518763 200.47604Q28.206263 200.05417 27.550013 199.8198ZM25.846888 203.27292L25.846888 199.80417Q25.050013 199.86667 24.659388 200.1948Q24.050013 200.71042 24.050013 201.5073Q24.050013 202.24167 24.534388 202.74167Q25.018763 203.22604 25.846888 203.27292ZM32.08126 192.05417Q30.971888 192.92917 29.503138 193.53854Q28.018763 194.1323 26.440638 194.1323Q25.050013 194.1323 23.768763 193.6948Q22.284388 193.16354 20.815638 192.05417L20.815638 191.30417Q22.034388 192.0073 22.550013 192.24167Q23.362513 192.60104 24.237513 192.80417Q25.331263 193.05417 26.440638 193.05417Q29.268763 193.05417 32.08126 191.30417L32.08126 192.05417ZM27.690638 190.49167L27.534388 189.46042Q28.159388 189.36667 28.487513 188.97604Q28.815638 188.5698 28.815638 187.83542Q28.815638 187.11667 28.534388 186.77292Q28.237513 186.41354 27.831263 186.41354Q27.471888 186.41354 27.268763 186.72604Q27.128138 186.9448 26.909388 187.80417Q26.612513 188.96042 26.409388 189.41354Q26.190638 189.85104 25.815638 190.08542Q25.440638 190.3198 24.971888 190.3198Q24.565638 190.3198 24.206263 190.1323Q23.846888 189.9448 23.612513 189.61667Q23.440638 189.36667 23.315638 188.9448Q23.190638 188.52292 23.190638 188.02292Q23.190638 187.30417 23.409388 186.7573Q23.612513 186.1948 23.971888 185.92917Q24.331263 185.66354 24.925013 185.5698L25.065638 186.60104Q24.596888 186.66354 24.331263 187.0073Q24.050013 187.33542 24.050013 187.96042Q24.050013 188.67917 24.300013 188.99167Q24.534388 189.30417 24.862513 189.30417Q25.065638 189.30417 25.221888 189.17917Q25.393763 189.03854 25.503138 188.77292Q25.565638 188.61667 25.768763 187.83542Q26.081263 186.71042 26.268763 186.27292Q26.456263 185.83542 26.815638 185.58542Q27.175013 185.33542 27.721888 185.33542Q28.253138 185.33542 28.721888 185.64792Q29.175013 185.9448 29.440638 186.52292Q29.690638 187.10104 29.690638 187.83542Q29.690638 189.05417 29.190638 189.6948Q28.675013 190.3198 27.690638 190.49167ZM32.08126 182.3823L32.08126 183.1323Q29.268763 181.3823 26.440638 181.3823Q25.346888 181.3823 24.253138 181.6323Q23.378138 181.83542 22.565638 182.1948Q22.050013 182.42917 20.815638 183.1323L20.815638 182.3823Q22.284388 181.28854 23.768763 180.7573Q25.050013 180.30417 26.440638 180.30417Q28.018763 180.30417 29.503138 180.91354Q30.971888 181.52292 32.08126 182.3823Z" fill-rule="nonzero"/><path fill="#000000" d="M65.05 300.21564Q65.05 298.6844 65.3625 297.7625Q65.675 296.825 66.28438 296.325Q66.90938 295.825 67.84688 295.825Q68.53438 295.825 69.05 296.10626Q69.58125 296.3875 69.925 296.91876Q70.26875 297.4344 70.45625 298.1844Q70.64375 298.9344 70.64375 300.21564Q70.64375 301.73126 70.33125 302.65314Q70.03438 303.575 69.40938 304.09064Q68.8 304.59064 67.84688 304.59064Q66.6125 304.59064 65.89375 303.7Q65.05 302.6375 65.05 300.21564ZM66.12813 300.21564Q66.12813 302.325 66.62813 303.02814Q67.12813 303.73126 67.84688 303.73126Q68.58125 303.73126 69.06563 303.02814Q69.56563 302.325 69.56563 300.21564Q69.56563 298.09064 69.06563 297.40314Q68.58125 296.7 67.83125 296.7Q67.1125 296.7 66.675 297.3094Q66.12813 298.09064 66.12813 300.21564Z" fill-rule="nonzero"/><path fill="#000000" d="M58.05 249.15834L59.159374 249.06459Q59.284374 249.87709 59.721874 250.28334Q60.175 250.68959 60.815624 250.68959Q61.565624 250.68959 62.096874 250.11147Q62.628124 249.53334 62.628124 248.59584Q62.628124 247.68959 62.1125 247.17397Q61.6125 246.64272 60.784374 246.64272Q60.284374 246.64272 59.8625 246.87709Q59.45625 247.11147 59.221874 247.47084L58.2375 247.34584L59.065624 242.93959L63.346874 242.93959L63.346874 243.93959L59.909374 243.93959L59.45625 246.25209Q60.221874 245.70522 61.065624 245.70522Q62.190624 245.70522 62.95625 246.48647Q63.7375 247.26772 63.7375 248.50209Q63.7375 249.65834 63.065624 250.51772Q62.2375 251.54897 60.815624 251.54897Q59.64375 251.54897 58.89375 250.89272Q58.159374 250.23647 58.05 249.15834ZM65.05 247.17397Q65.05 245.64272 65.3625 244.72084Q65.675 243.78334 66.28438 243.28334Q66.90938 242.78334 67.84688 242.78334Q68.53438 242.78334 69.05 243.06459Q69.58125 243.34584 69.925 243.87709Q70.26875 244.39272 70.45625 245.14272Q70.64375 245.89272 70.64375 247.17397Q70.64375 248.68959 70.33125 249.61147Q70.03438 250.53334 69.40938 251.04897Q68.8 251.54897 67.84688 251.54897Q66.6125 251.54897 65.89375 250.65834Q65.05 249.59584 65.05 247.17397ZM66.12813 247.17397Q66.12813 249.28334 66.62813 249.98647Q67.12813 250.68959 67.84688 250.68959Q68.58125 250.68959 69.06563 249.98647Q69.56563 249.28334 69.56563 247.17397Q69.56563 245.04897 69.06563 244.36147Q68.58125 243.65834 67.83125 243.65834Q67.1125 243.65834 66.675 244.26772Q66.12813 245.04897 66.12813 247.17397Z" fill-rule="nonzero"/><path fill="#000000" d="M55.01875 198.36667L53.971874 198.36667L53.971874 191.64792Q53.58125 192.0073 52.95625 192.3823Q52.346874 192.74167 51.8625 192.91354L51.8625 191.89792Q52.7375 191.47604 53.39375 190.89792Q54.065624 190.30417 54.346874 189.74167L55.01875 189.74167L55.01875 198.36667ZM58.05 194.1323Q58.05 192.60104 58.3625 191.67917Q58.675 190.74167 59.284374 190.24167Q59.909374 189.74167 60.846874 189.74167Q61.534374 189.74167 62.05 190.02292Q62.58125 190.30417 62.925 190.83542Q63.26875 191.35104 63.45625 192.10104Q63.64375 192.85104 63.64375 194.1323Q63.64375 195.64792 63.33125 196.5698Q63.034374 197.49167 62.409374 198.0073Q61.8 198.5073 60.846874 198.5073Q59.6125 198.5073 58.89375 197.61667Q58.05 196.55417 58.05 194.1323ZM59.128124 194.1323Q59.128124 196.24167 59.628124 196.9448Q60.128124 197.64792 60.846874 197.64792Q61.58125 197.64792 62.065624 196.9448Q62.565624 196.24167 62.565624 194.1323Q62.565624 192.0073 62.065624 191.3198Q61.58125 190.61667 60.83125 190.61667Q60.1125 190.61667 59.675 191.22604Q59.128124 192.0073 59.128124 194.1323ZM65.05 194.1323Q65.05 192.60104 65.3625 191.67917Q65.675 190.74167 66.28438 190.24167Q66.90938 189.74167 67.84688 189.74167Q68.53438 189.74167 69.05 190.02292Q69.58125 190.30417 69.925 190.83542Q70.26875 191.35104 70.45625 192.10104Q70.64375 192.85104 70.64375 194.1323Q70.64375 195.64792 70.33125 196.5698Q70.03438 197.49167 69.40938 198.0073Q68.8 198.5073 67.84688 198.5073Q66.6125 198.5073 65.89375 197.61667Q65.05 196.55417 65.05 194.1323ZM66.12813 194.1323Q66.12813 196.24167 66.62813 196.9448Q67.12813 197.64792 67.84688 197.64792Q68.58125 197.64792 69.06563 196.9448Q69.56563 196.24167 69.56563 194.1323Q69.56563 192.0073 69.06563 191.3198Q68.58125 190.61667 67.83125 190.61667Q67.1125 190.61667 66.675 191.22604Q66.12813 192.0073 66.12813 194.1323Z" fill-rule="nonzero"/><path fill="#000000" d="M55.01875 145.325L53.971874 145.325L53.971874 138.60625Q53.58125 138.96562 52.95625 139.34062Q52.346874 139.7 51.8625 139.87187L51.8625 138.85625Q52.7375 138.43437 53.39375 137.85625Q54.065624 137.2625 54.346874 136.7L55.01875 136.7L55.01875 145.325ZM58.05 143.075L59.159374 142.98125Q59.284374 143.79375 59.721874 144.2Q60.175 144.60625 60.815624 144.60625Q61.565624 144.60625 62.096874 144.02812Q62.628124 143.45 62.628124 142.5125Q62.628124 141.60625 62.1125 141.09062Q61.6125 140.55937 60.784374 140.55937Q60.284374 140.55937 59.8625 140.79375Q59.45625 141.02812 59.221874 141.3875L58.2375 141.2625L59.065624 136.85625L63.346874 136.85625L63.346874 137.85625L59.909374 137.85625L59.45625 140.16875Q60.221874 139.62187 61.065624 139.62187Q62.190624 139.62187 62.95625 140.40312Q63.7375 141.18437 63.7375 142.41875Q63.7375 143.575 63.065624 144.43437Q62.2375 145.46562 60.815624 145.46562Q59.64375 145.46562 58.89375 144.80937Q58.159374 144.15312 58.05 143.075ZM65.05 141.09062Q65.05 139.55937 65.3625 138.6375Q65.675 137.7 66.28438 137.2Q66.90938 136.7 67.84688 136.7Q68.53438 136.7 69.05 136.98125Q69.58125 137.2625 69.925 137.79375Q70.26875 138.30937 70.45625 139.05937Q70.64375 139.80937 70.64375 141.09062Q70.64375 142.60625 70.33125 143.52812Q70.03438 144.45 69.40938 144.96562Q68.8 145.46562 67.84688 145.46562Q66.6125 145.46562 65.89375 144.575Q65.05 143.5125 65.05 141.09062ZM66.12813 141.09062Q66.12813 143.2 66.62813 143.90312Q67.12813 144.60625 67.84688 144.60625Q68.58125 144.60625 69.06563 143.90312Q69.56563 143.2 69.56563 141.09062Q69.56563 138.96562 69.06563 138.27812Q68.58125 137.575 67.83125 137.575Q67.1125 137.575 66.675 138.18437Q66.12813 138.96562 66.12813 141.09062Z" fill-rule="nonzero"/><path fill="#000000" d="M56.596874 91.26771L56.596874 92.28333L50.909374 92.28333Q50.909374 91.90833 51.034374 91.54896Q51.253124 90.97083 51.721874 90.40833Q52.20625 89.84583 53.1125 89.11146Q54.51875 87.95521 55.003124 87.28333Q55.503124 86.61146 55.503124 86.01771Q55.503124 85.39271 55.05 84.97083Q54.596874 84.53333 53.878124 84.53333Q53.1125 84.53333 52.659374 84.98646Q52.20625 85.43958 52.190624 86.25208L51.1125 86.14271Q51.221874 84.92396 51.940624 84.29896Q52.675 83.65833 53.909374 83.65833Q55.14375 83.65833 55.8625 84.34583Q56.58125 85.03333 56.58125 86.04896Q56.58125 86.56458 56.3625 87.06458Q56.159374 87.54896 55.659374 88.11146Q55.175 88.65833 54.05 89.61146Q53.096874 90.40833 52.815624 90.70521Q52.55 90.98646 52.378124 91.26771L56.596874 91.26771ZM58.05 88.04896Q58.05 86.51771 58.3625 85.59583Q58.675 84.65833 59.284374 84.15833Q59.909374 83.65833 60.846874 83.65833Q61.534374 83.65833 62.05 83.93958Q62.58125 84.22083 62.925 84.75208Q63.26875 85.26771 63.45625 86.01771Q63.64375 86.76771 63.64375 88.04896Q63.64375 89.56458 63.33125 90.48646Q63.034374 91.40833 62.409374 91.92396Q61.8 92.42396 60.846874 92.42396Q59.6125 92.42396 58.89375 91.53333Q58.05 90.47083 58.05 88.04896ZM59.128124 88.04896Q59.128124 90.15833 59.628124 90.86146Q60.128124 91.56458 60.846874 91.56458Q61.58125 91.56458 62.065624 90.86146Q62.565624 90.15833 62.565624 88.04896Q62.565624 85.92396 62.065624 85.23646Q61.58125 84.53333 60.83125 84.53333Q60.1125 84.53333 59.675 85.14271Q59.128124 85.92396 59.128124 88.04896ZM65.05 88.04896Q65.05 86.51771 65.3625 85.59583Q65.675 84.65833 66.28438 84.15833Q66.90938 83.65833 67.84688 83.65833Q68.53438 83.65833 69.05 83.93958Q69.58125 84.22083 69.925 84.75208Q70.26875 85.26771 70.45625 86.01771Q70.64375 86.76771 70.64375 88.04896Q70.64375 89.56458 70.33125 90.48646Q70.03438 91.40833 69.40938 91.92396Q68.8 92.42396 67.84688 92.42396Q66.6125 92.42396 65.89375 91.53333Q65.05 90.47083 65.05 88.04896ZM66.12813 88.04896Q66.12813 90.15833 66.62813 90.86146Q67.12813 91.56458 67.84688 91.56458Q68.58125 91.56458 69.06563 90.86146Q69.56563 90.15833 69.56563 88.04896Q69.56563 85.92396 69.06563 85.23646Q68.58125 84.53333 67.83125 84.53333Q67.1125 84.53333 66.675 85.14271Q66.12813 85.92396 66.12813 88.04896Z" fill-rule="nonzero"/><path fill="#000000" d="M78.51875 317.45L77.47188 317.45L77.47188 310.73126Q77.08125 311.09064 76.45625 311.46564Q75.84688 311.825 75.3625 311.9969L75.3625 310.98126Q76.2375 310.5594 76.89375 309.98126Q77.56563 309.3875 77.84688 308.825L78.51875 308.825L78.51875 317.45Z" fill-rule="nonzero"/><path fill="#000000" d="M206.07187 316.4344L206.07187 317.45L200.38437 317.45Q200.38437 317.075 200.50937 316.71564Q200.72812 316.1375 201.19687 315.575Q201.68124 315.0125 202.5875 314.27814Q203.99374 313.1219 204.47812 312.45Q204.97812 311.77814 204.97812 311.1844Q204.97812 310.5594 204.525 310.1375Q204.07187 309.7 203.35312 309.7Q202.5875 309.7 202.13437 310.15314Q201.68124 310.60626 201.66562 311.41876L200.5875 311.3094Q200.69687 310.09064 201.41562 309.46564Q202.15 308.825 203.38437 308.825Q204.61874 308.825 205.3375 309.5125Q206.05624 310.2 206.05624 311.21564Q206.05624 311.73126 205.8375 312.23126Q205.63437 312.71564 205.13437 313.27814Q204.65 313.825 203.525 314.77814Q202.57187 315.575 202.29062 315.8719Q202.025 316.15314 201.85312 316.4344L206.07187 316.4344Z" fill-rule="nonzero"/><path fill="#000000" d="M326.5 315.1844L327.5625 315.04376Q327.73438 315.9344 328.17188 316.34064Q328.60938 316.73126 329.23438 316.73126Q329.98438 316.73126 330.5 316.21564Q331.01562 315.7 331.01562 314.9344Q331.01562 314.21564 330.53125 313.7469Q330.0625 313.2625 329.32812 313.2625Q329.03125 313.2625 328.57812 313.3875L328.70312 312.45Q328.8125 312.46564 328.875 312.46564Q329.54688 312.46564 330.07812 312.1219Q330.625 311.7625 330.625 311.02814Q330.625 310.45 330.23438 310.075Q329.84375 309.6844 329.21875 309.6844Q328.60938 309.6844 328.1875 310.075Q327.78125 310.46564 327.67188 311.23126L326.60938 311.04376Q326.79688 309.9969 327.48438 309.41876Q328.17188 308.825 329.1875 308.825Q329.89062 308.825 330.48438 309.1375Q331.07812 309.4344 331.39062 309.95Q331.70312 310.46564 331.70312 311.0594Q331.70312 311.60626 331.40625 312.075Q331.10938 312.52814 330.53125 312.79376Q331.28125 312.96564 331.70312 313.52814Q332.125 314.075 332.125 314.91876Q332.125 316.04376 331.29688 316.825Q330.48438 317.60626 329.23438 317.60626Q328.10938 317.60626 327.35938 316.9344Q326.60938 316.2469 326.5 315.1844Z" fill-rule="nonzero"/><path fill="#000000" d="M455.85 317.45L455.85 315.3875L452.13126 315.3875L452.13126 314.41876L456.05313 308.85626L456.9125 308.85626L456.9125 314.41876L458.06876 314.41876L458.06876 315.3875L456.9125 315.3875L456.9125 317.45L455.85 317.45ZM455.85 314.41876L455.85 310.5594L453.1625 314.41876L455.85 314.41876Z" fill-rule="nonzero"/><path fill="#000000" d="M578.45 315.2L579.5594 315.10626Q579.6844 315.91876 580.1219 316.325Q580.575 316.73126 581.21564 316.73126Q581.96564 316.73126 582.4969 316.15314Q583.02814 315.575 583.02814 314.6375Q583.02814 313.73126 582.5125 313.21564Q582.0125 312.6844 581.1844 312.6844Q580.6844 312.6844 580.2625 312.91876Q579.85626 313.15314 579.6219 313.5125L578.6375 313.3875L579.46564 308.98126L583.7469 308.98126L583.7469 309.98126L580.3094 309.98126L579.85626 312.29376Q580.6219 311.7469 581.46564 311.7469Q582.59064 311.7469 583.35626 312.52814Q584.1375 313.3094 584.1375 314.54376Q584.1375 315.7 583.46564 316.5594Q582.6375 317.59064 581.21564 317.59064Q580.04376 317.59064 579.29376 316.9344Q578.5594 316.27814 578.45 315.2Z" fill-rule="nonzero"/><path stroke="#4285f4" stroke-width="4.0" stroke-linecap="butt" d="M247.0 61.916668L259.0 61.916668" fill-rule="nonzero"/><path fill="#1a1a1a" d="M267.92188 65.916664L267.92188 57.322914L271.17188 57.322914Q272.01562 57.322914 272.46875 57.40104Q273.10938 57.510414 273.53125 57.80729Q273.96875 58.104164 274.21875 58.635414Q274.48438 59.166664 274.48438 59.80729Q274.48438 60.90104 273.78125 61.666664Q273.09375 62.416664 271.26562 62.416664L269.0625 62.416664L269.0625 65.916664L267.92188 65.916664ZM269.0625 61.416664L271.28125 61.416664Q272.39062 61.416664 272.84375 61.010414Q273.3125 60.58854 273.3125 59.83854Q273.3125 59.30729 273.03125 58.93229Q272.76562 58.541664 272.32812 58.416664Q272.03125 58.33854 271.26562 58.33854L269.0625 58.33854L269.0625 61.416664ZM275.79688 58.541664L275.79688 57.322914L276.85938 57.322914L276.85938 58.541664L275.79688 58.541664ZM275.79688 65.916664L275.79688 59.697914L276.85938 59.697914L276.85938 65.916664L275.79688 65.916664ZM278.59375 66.43229L279.625 66.58854Q279.6875 67.05729 279.98438 67.27604Q280.375 67.572914 281.04688 67.572914Q281.78125 67.572914 282.17188 67.27604Q282.57812 66.979164 282.71875 66.46354Q282.8125 66.135414 282.79688 65.104164Q282.10938 65.916664 281.07812 65.916664Q279.79688 65.916664 279.09375 64.99479Q278.39062 64.05729 278.39062 62.77604Q278.39062 61.885414 278.70312 61.135414Q279.03125 60.36979 279.64062 59.96354Q280.25 59.55729 281.07812 59.55729Q282.1875 59.55729 282.90625 60.447914L282.90625 59.697914L283.875 59.697914L283.875 65.072914Q283.875 66.52604 283.57812 67.135414Q283.28125 67.74479 282.64062 68.08854Q282.0 68.447914 281.0625 68.447914Q279.95312 68.447914 279.26562 67.947914Q278.57812 67.447914 278.59375 66.43229ZM279.46875 62.697914Q279.46875 63.916664 279.95312 64.479164Q280.4375 65.041664 281.17188 65.041664Q281.90625 65.041664 282.39062 64.479164Q282.89062 63.916664 282.89062 62.729164Q282.89062 61.58854 282.375 61.010414Q281.875 60.43229 281.15625 60.43229Q280.45312 60.43229 279.95312 61.010414Q279.46875 61.572914 279.46875 62.697914Z" fill-rule="nonzero"/><path stroke="#ea4335" stroke-width="4.0" stroke-linecap="butt" d="M301.0 61.916668L313.0 61.916668" fill-rule="nonzero"/><path fill="#1a1a1a" d="M321.54688 63.15104L322.60938 63.05729Q322.6875 63.71354 322.96875 64.11979Q323.25 64.52604 323.82812 64.791664Q324.42188 65.041664 325.15625 65.041664Q325.79688 65.041664 326.29688 64.854164Q326.79688 64.65104 327.03125 64.322914Q327.28125 63.979164 327.28125 63.58854Q327.28125 63.18229 327.04688 62.885414Q326.8125 62.572914 326.28125 62.36979Q325.92188 62.229164 324.73438 61.947914Q323.5625 61.666664 323.09375 61.416664Q322.46875 61.08854 322.17188 60.61979Q321.875 60.135414 321.875 59.541664Q321.875 58.90104 322.23438 58.33854Q322.60938 57.760414 323.3125 57.479164Q324.03125 57.18229 324.89062 57.18229Q325.84375 57.18229 326.57812 57.49479Q327.3125 57.791664 327.70312 58.40104Q328.09375 58.99479 328.125 59.74479L327.03125 59.822914Q326.9375 59.010414 326.42188 58.604164Q325.92188 58.18229 324.9375 58.18229Q323.90625 58.18229 323.4375 58.55729Q322.96875 58.93229 322.96875 59.46354Q322.96875 59.93229 323.29688 60.229164Q323.625 60.52604 325.0 60.83854Q326.39062 61.15104 326.90625 61.385414Q327.65625 61.74479 328.01562 62.27604Q328.375 62.791664 328.375 63.49479Q328.375 64.18229 327.98438 64.791664Q327.59375 65.385414 326.85938 65.729164Q326.125 66.05729 325.20312 66.05729Q324.03125 66.05729 323.23438 65.729164Q322.45312 65.385414 322.0 64.697914Q321.5625 64.010414 321.54688 63.15104ZM329.79688 68.30729L329.79688 59.697914L330.75 59.697914L330.75 60.49479Q331.09375 60.02604 331.51562 59.791664Q331.95312 59.55729 332.5625 59.55729Q333.35938 59.55729 333.96875 59.96354Q334.57812 60.36979 334.875 61.11979Q335.1875 61.86979 335.1875 62.760414Q335.1875 63.71354 334.84375 64.479164Q334.51562 65.24479 333.85938 65.65104Q333.20312 66.05729 332.48438 66.05729Q331.95312 66.05729 331.53125 65.83854Q331.10938 65.604164 330.84375 65.27604L330.84375 68.30729L329.79688 68.30729ZM330.75 62.83854Q330.75 64.041664 331.23438 64.61979Q331.71875 65.18229 332.40625 65.18229Q333.10938 65.18229 333.60938 64.58854Q334.10938 63.99479 334.10938 62.74479Q334.10938 61.55729 333.625 60.979164Q333.14062 60.385414 332.45312 60.385414Q331.78125 60.385414 331.26562 61.010414Q330.75 61.635414 330.75 62.83854ZM340.85938 65.15104Q340.26562 65.65104 339.71875 65.854164Q339.1875 66.05729 338.5625 66.05729Q337.53125 66.05729 336.98438 65.55729Q336.4375 65.05729 336.4375 64.27604Q336.4375 63.822914 336.64062 63.447914Q336.84375 63.05729 337.1875 62.83854Q337.53125 62.604164 337.95312 62.49479Q338.25 62.40104 338.89062 62.322914Q340.15625 62.18229 340.76562 61.96354Q340.76562 61.74479 340.76562 61.697914Q340.76562 61.041664 340.46875 60.77604Q340.0625 60.43229 339.26562 60.43229Q338.53125 60.43229 338.17188 60.697914Q337.8125 60.947914 337.64062 61.604164L336.60938 61.46354Q336.75 60.80729 337.07812 60.40104Q337.40625 59.99479 338.01562 59.77604Q338.625 59.55729 339.42188 59.55729Q340.21875 59.55729 340.71875 59.74479Q341.21875 59.93229 341.45312 60.21354Q341.6875 60.49479 341.78125 60.93229Q341.82812 61.197914 341.82812 61.90104L341.82812 63.30729Q341.82812 64.77604 341.89062 65.166664Q341.96875 65.55729 342.17188 65.916664L341.0625 65.916664Q340.90625 65.58854 340.85938 65.15104ZM340.76562 62.791664Q340.1875 63.02604 339.04688 63.197914Q338.39062 63.291664 338.125 63.416664Q337.85938 63.52604 337.70312 63.74479Q337.5625 63.96354 337.5625 64.24479Q337.5625 64.666664 337.875 64.947914Q338.20312 65.229164 338.8125 65.229164Q339.42188 65.229164 339.89062 64.96354Q340.375 64.697914 340.59375 64.229164Q340.76562 63.86979 340.76562 63.18229L340.76562 62.791664ZM343.78125 65.916664L343.78125 59.697914L344.73438 59.697914L344.73438 60.635414Q345.09375 59.979164 345.39062 59.77604Q345.70312 59.55729 346.07812 59.55729Q346.60938 59.55729 347.15625 59.885414L346.79688 60.86979Q346.40625 60.635414 346.03125 60.635414Q345.67188 60.635414 345.39062 60.854164Q345.125 61.05729 345.01562 61.43229Q344.82812 61.99479 344.82812 62.65104L344.82812 65.916664L343.78125 65.916664ZM347.79688 65.916664L347.79688 57.322914L348.85938 57.322914L348.85938 62.229164L351.34375 59.697914L352.71875 59.697914L350.32812 61.99479L352.95312 65.916664L351.65625 65.916664L349.59375 62.729164L348.85938 63.447914L348.85938 65.916664L347.79688 65.916664Z" fill-rule="nonzero"/><path fill="#757575" d="M20.096874 37.55L20.096874 23.2375L25.4875 23.2375Q26.925 23.2375 27.675 23.3625Q28.721874 23.55 29.440624 24.05Q30.159374 24.534374 30.58125 25.425Q31.01875 26.315624 31.01875 27.378124Q31.01875 29.20625 29.846874 30.471874Q28.690624 31.721874 25.659374 31.721874L21.9875 31.721874L21.9875 37.55L20.096874 37.55ZM21.9875 30.034374L25.690624 30.034374Q27.51875 30.034374 28.284374 29.3625Q29.065624 28.675 29.065624 27.425Q29.065624 26.534374 28.6125 25.89375Q28.159374 25.253124 27.425 25.05Q26.940624 24.925 25.64375 24.925L21.9875 24.925L21.9875 30.034374ZM32.878124 25.253124L32.878124 23.2375L34.64375 23.2375L34.64375 25.253124L32.878124 25.253124ZM32.878124 37.55L32.878124 27.175L34.64375 27.175L34.64375 37.55L32.878124 37.55ZM36.55 38.409374L38.253124 38.659374Q38.3625 39.45625 38.846874 39.815624Q39.503124 40.3 40.64375 40.3Q41.8625 40.3 42.51875 39.815624Q43.190624 39.33125 43.425 38.45625Q43.565624 37.909374 43.55 36.190624Q42.39375 37.55 40.675 37.55Q38.534374 37.55 37.3625 36.003124Q36.190624 34.45625 36.190624 32.3Q36.190624 30.815624 36.721874 29.565624Q37.26875 28.315624 38.284374 27.628124Q39.315624 26.940624 40.690624 26.940624Q42.51875 26.940624 43.721874 28.425L43.721874 27.175L45.33125 27.175L45.33125 36.14375Q45.33125 38.565624 44.83125 39.565624Q44.346874 40.58125 43.26875 41.159374Q42.20625 41.753124 40.64375 41.753124Q38.8 41.753124 37.64375 40.925Q36.503124 40.096874 36.55 38.409374ZM38.003124 32.175Q38.003124 34.221874 38.815624 35.159374Q39.628124 36.096874 40.846874 36.096874Q42.05 36.096874 42.8625 35.159374Q43.690624 34.221874 43.690624 32.2375Q43.690624 30.33125 42.846874 29.3625Q42.003124 28.39375 40.815624 28.39375Q39.64375 28.39375 38.815624 29.346874Q38.003124 30.3 38.003124 32.175ZM56.753124 37.55L52.8 27.175L54.659374 27.175L56.89375 33.39375Q57.253124 34.39375 57.55 35.471874Q57.784374 34.659374 58.20625 33.503124L60.503124 27.175L62.315624 27.175L58.39375 37.55L56.753124 37.55ZM62.159374 34.45625L63.909374 34.175Q64.05 35.221874 64.72188 35.784374Q65.39375 36.33125 66.59688 36.33125Q67.8 36.33125 68.37813 35.846874Q68.97188 35.346874 68.97188 34.690624Q68.97188 34.096874 68.45625 33.753124Q68.09688 33.51875 66.65938 33.159374Q64.72188 32.659374 63.971874 32.315624Q63.2375 31.95625 62.846874 31.33125Q62.45625 30.690624 62.45625 29.925Q62.45625 29.2375 62.76875 28.64375Q63.096874 28.05 63.64375 27.659374Q64.05 27.3625 64.75313 27.159374Q65.47188 26.940624 66.28438 26.940624Q67.50313 26.940624 68.425 27.3Q69.34688 27.64375 69.78438 28.253124Q70.22188 28.846874 70.39375 29.846874L68.675 30.08125Q68.55 29.284374 67.9875 28.846874Q67.425 28.39375 66.40938 28.39375Q65.19063 28.39375 64.675 28.8Q64.15938 29.190624 64.15938 29.721874Q64.15938 30.065624 64.37813 30.346874Q64.58125 30.628124 65.05 30.815624Q65.31563 30.909374 66.59688 31.253124Q68.47188 31.753124 69.20625 32.08125Q69.94063 32.39375 70.3625 33.003124Q70.78438 33.596874 70.78438 34.503124Q70.78438 35.378124 70.26875 36.159374Q69.75313 36.940624 68.78438 37.3625Q67.81563 37.784374 66.59688 37.784374Q64.58125 37.784374 63.51875 36.940624Q62.45625 36.096874 62.159374 34.45625ZM78.45625 32.95625L80.2375 32.8Q80.3625 33.8625 80.81563 34.55Q81.28438 35.2375 82.25313 35.675Q83.2375 36.096874 84.47188 36.096874Q85.55 36.096874 86.37813 35.784374Q87.20625 35.45625 87.6125 34.89375Q88.01875 34.33125 88.01875 33.659374Q88.01875 32.9875 87.62813 32.4875Q87.2375 31.9875 86.34688 31.64375Q85.76875 31.409374 83.78438 30.940624Q81.81563 30.471874 81.03438 30.05Q80.00313 29.51875 79.50313 28.721874Q79.00313 27.925 79.00313 26.940624Q79.00313 25.846874 79.6125 24.909374Q80.22188 23.971874 81.40938 23.4875Q82.59688 22.9875 84.03438 22.9875Q85.62813 22.9875 86.84688 23.503124Q88.06563 24.01875 88.70625 25.01875Q89.3625 26.003124 89.40938 27.26875L87.59688 27.409374Q87.45625 26.05 86.6125 25.3625Q85.76875 24.659374 84.1125 24.659374Q82.39375 24.659374 81.59688 25.3Q80.81563 25.925 80.81563 26.8Q80.81563 27.58125 81.37813 28.08125Q81.925 28.58125 84.2375 29.096874Q86.55 29.6125 87.40938 30.003124Q88.65938 30.58125 89.25313 31.471874Q89.84688 32.346874 89.84688 33.503124Q89.84688 34.64375 89.19063 35.659374Q88.53438 36.675 87.3 37.2375Q86.08125 37.8 84.55 37.8Q82.6125 37.8 81.3 37.2375Q79.9875 36.659374 79.2375 35.51875Q78.4875 34.378124 78.45625 32.95625ZM91.8625 41.51875L91.8625 27.175L93.47188 27.175L93.47188 28.51875Q94.03438 27.7375 94.7375 27.346874Q95.45625 26.940624 96.47188 26.940624Q97.8 26.940624 98.81563 27.628124Q99.83125 28.315624 100.34688 29.565624Q100.87813 30.8 100.87813 32.284374Q100.87813 33.878124 100.3 35.159374Q99.7375 36.425 98.64375 37.1125Q97.55 37.784374 96.34688 37.784374Q95.47188 37.784374 94.76875 37.409374Q94.08125 37.034374 93.62813 36.471874L93.62813 41.51875L91.8625 41.51875ZM93.45625 32.425Q93.45625 34.425 94.26875 35.378124Q95.08125 36.33125 96.2375 36.33125Q97.40938 36.33125 98.2375 35.346874Q99.08125 34.3625 99.08125 32.26875Q99.08125 30.3 98.25313 29.315624Q97.44063 28.315624 96.31563 28.315624Q95.19063 28.315624 94.31563 29.378124Q93.45625 30.425 93.45625 32.425ZM109.64375 36.26875Q108.65938 37.096874 107.75313 37.440624Q106.84688 37.784374 105.81563 37.784374Q104.1125 37.784374 103.19063 36.95625Q102.26875 36.1125 102.26875 34.815624Q102.26875 34.05 102.6125 33.425Q102.97188 32.8 103.53438 32.425Q104.09688 32.034374 104.8 31.83125Q105.31563 31.70625 106.3625 31.565624Q108.4875 31.315624 109.4875 30.971874Q109.50313 30.6125 109.50313 30.503124Q109.50313 29.440624 109.00313 28.9875Q108.33125 28.39375 107.00313 28.39375Q105.75313 28.39375 105.15938 28.83125Q104.58125 29.26875 104.3 30.378124L102.58125 30.14375Q102.81563 29.034374 103.34688 28.3625Q103.87813 27.675 104.89375 27.315624Q105.90938 26.940624 107.25313 26.940624Q108.58125 26.940624 109.40938 27.253124Q110.2375 27.565624 110.62813 28.05Q111.01875 28.51875 111.175 29.2375Q111.26875 29.690624 111.26875 30.8625L111.26875 33.20625Q111.26875 35.659374 111.37813 36.315624Q111.4875 36.95625 111.83125 37.55L109.9875 37.55Q109.72188 37.003124 109.64375 36.26875ZM109.4875 32.346874Q108.53438 32.7375 106.6125 33.003124Q105.53438 33.159374 105.08125 33.3625Q104.64375 33.55 104.39375 33.925Q104.14375 34.3 104.14375 34.76875Q104.14375 35.471874 104.675 35.940624Q105.20625 36.409374 106.2375 36.409374Q107.25313 36.409374 108.03438 35.971874Q108.83125 35.51875 109.20625 34.753124Q109.4875 34.14375 109.4875 32.9875L109.4875 32.346874ZM113.84688 37.55L113.84688 27.175L115.425 27.175L115.425 28.753124Q116.03438 27.64375 116.55 27.3Q117.06563 26.940624 117.675 26.940624Q118.56563 26.940624 119.4875 27.503124L118.87813 29.14375Q118.2375 28.753124 117.59688 28.753124Q117.01875 28.753124 116.55 29.1125Q116.09688 29.45625 115.89375 30.065624Q115.6125 31.003124 115.6125 32.1125L115.6125 37.55L113.84688 37.55ZM120.87813 37.55L120.87813 23.2375L122.64375 23.2375L122.64375 31.39375L126.8 27.175L129.06563 27.175L125.1125 31.01875L129.47188 37.55L127.3 37.55L123.87813 32.253124L122.64375 33.440624L122.64375 37.55L120.87813 37.55ZM140.22188 41.753124Q138.76875 39.925 137.76875 37.471874Q136.76875 35.003124 136.76875 32.3625Q136.76875 30.034374 137.51875 27.909374Q138.39375 25.440624 140.22188 22.9875L141.4875 22.9875Q140.3 25.01875 139.925 25.89375Q139.33125 27.2375 138.9875 28.70625Q138.56563 30.534374 138.56563 32.378124Q138.56563 37.065624 141.4875 41.753124L140.22188 41.753124ZM143.15938 34.45625L144.90938 34.175Q145.05 35.221874 145.72188 35.784374Q146.39375 36.33125 147.59688 36.33125Q148.8 36.33125 149.37813 35.846874Q149.97188 35.346874 149.97188 34.690624Q149.97188 34.096874 149.45625 33.753124Q149.09688 33.51875 147.65938 33.159374Q145.72188 32.659374 144.97188 32.315624Q144.2375 31.95625 143.84688 31.33125Q143.45625 30.690624 143.45625 29.925Q143.45625 29.2375 143.76875 28.64375Q144.09688 28.05 144.64375 27.659374Q145.05 27.3625 145.75313 27.159374Q146.47188 26.940624 147.28438 26.940624Q148.50313 26.940624 149.425 27.3Q150.34688 27.64375 150.78438 28.253124Q151.22188 28.846874 151.39375 29.846874L149.675 30.08125Q149.55 29.284374 148.9875 28.846874Q148.425 28.39375 147.40938 28.39375Q146.19063 28.39375 145.675 28.8Q145.15938 29.190624 145.15938 29.721874Q145.15938 30.065624 145.37813 30.346874Q145.58125 30.628124 146.05 30.815624Q146.31563 30.909374 147.59688 31.253124Q149.47188 31.753124 150.20625 32.08125Q150.94063 32.39375 151.3625 33.003124Q151.78438 33.596874 151.78438 34.503124Q151.78438 35.378124 151.26875 36.159374Q150.75313 36.940624 149.78438 37.3625Q148.81563 37.784374 147.59688 37.784374Q145.58125 37.784374 144.51875 36.940624Q143.45625 36.096874 143.15938 34.45625ZM153.8625 37.55L153.8625 27.175L155.44063 27.175L155.44063 28.628124Q155.925 27.878124 156.7375 27.409374Q157.55 26.940624 158.58125 26.940624Q159.7375 26.940624 160.47188 27.425Q161.20625 27.89375 161.51875 28.753124Q162.75313 26.940624 164.72188 26.940624Q166.26875 26.940624 167.09688 27.8Q167.925 28.659374 167.925 30.425L167.925 37.55L166.175 37.55L166.175 31.01875Q166.175 29.95625 166.00313 29.503124Q165.83125 29.034374 165.37813 28.753124Q164.94063 28.471874 164.33125 28.471874Q163.2375 28.471874 162.50313 29.20625Q161.78438 29.925 161.78438 31.51875L161.78438 37.55L160.03438 37.55L160.03438 30.815624Q160.03438 29.64375 159.59688 29.065624Q159.175 28.471874 158.19063 28.471874Q157.45625 28.471874 156.81563 28.8625Q156.19063 29.253124 155.90938 30.003124Q155.62813 30.753124 155.62813 32.175L155.62813 37.55L153.8625 37.55ZM176.64375 36.26875Q175.65938 37.096874 174.75313 37.440624Q173.84688 37.784374 172.81563 37.784374Q171.1125 37.784374 170.19063 36.95625Q169.26875 36.1125 169.26875 34.815624Q169.26875 34.05 169.6125 33.425Q169.97188 32.8 170.53438 32.425Q171.09688 32.034374 171.8 31.83125Q172.31563 31.70625 173.3625 31.565624Q175.4875 31.315624 176.4875 30.971874Q176.50313 30.6125 176.50313 30.503124Q176.50313 29.440624 176.00313 28.9875Q175.33125 28.39375 174.00313 28.39375Q172.75313 28.39375 172.15938 28.83125Q171.58125 29.26875 171.3 30.378124L169.58125 30.14375Q169.81563 29.034374 170.34688 28.3625Q170.87813 27.675 171.89375 27.315624Q172.90938 26.940624 174.25313 26.940624Q175.58125 26.940624 176.40938 27.253124Q177.2375 27.565624 177.62813 28.05Q178.01875 28.51875 178.175 29.2375Q178.26875 29.690624 178.26875 30.8625L178.26875 33.20625Q178.26875 35.659374 178.37813 36.315624Q178.4875 36.95625 178.83125 37.55L176.9875 37.55Q176.72188 37.003124 176.64375 36.26875ZM176.4875 32.346874Q175.53438 32.7375 173.6125 33.003124Q172.53438 33.159374 172.08125 33.3625Q171.64375 33.55 171.39375 33.925Q171.14375 34.3 171.14375 34.76875Q171.14375 35.471874 171.675 35.940624Q172.20625 36.409374 173.2375 36.409374Q174.25313 36.409374 175.03438 35.971874Q175.83125 35.51875 176.20625 34.753124Q176.4875 34.14375 176.4875 32.9875L176.4875 32.346874ZM180.83125 37.55L180.83125 23.2375L182.58125 23.2375L182.58125 37.55L180.83125 37.55ZM184.83125 37.55L184.83125 23.2375L186.58125 23.2375L186.58125 37.55L184.83125 37.55ZM194.8625 41.51875L194.8625 27.175L196.47188 27.175L196.47188 28.51875Q197.03438 27.7375 197.7375 27.346874Q198.45625 26.940624 199.47188 26.940624Q200.8 26.940624 201.81563 27.628124Q202.83125 28.315624 203.34688 29.565624Q203.87813 30.8 203.87813 32.284374Q203.87813 33.878124 203.3 35.159374Q202.7375 36.425 201.64375 37.1125Q200.55 37.784374 199.34688 37.784374Q198.47188 37.784374 197.76875 37.409374Q197.08125 37.034374 196.62813 36.471874L196.62813 41.51875L194.8625 41.51875ZM196.45625 32.425Q196.45625 34.425 197.26875 35.378124Q198.08125 36.33125 199.2375 36.33125Q200.40938 36.33125 201.2375 35.346874Q202.08125 34.3625 202.08125 32.26875Q202.08125 30.3 201.25313 29.315624Q200.44063 28.315624 199.31563 28.315624Q198.19063 28.315624 197.31563 29.378124Q196.45625 30.425 196.45625 32.425ZM212.64375 36.26875Q211.65938 37.096874 210.75313 37.440624Q209.84688 37.784374 208.81563 37.784374Q207.1125 37.784374 206.19063 36.95625Q205.26875 36.1125 205.26875 34.815624Q205.26875 34.05 205.6125 33.425Q205.97188 32.8 206.53438 32.425Q207.09688 32.034374 207.8 31.83125Q208.31563 31.70625 209.3625 31.565624Q211.4875 31.315624 212.4875 30.971874Q212.50313 30.6125 212.50313 30.503124Q212.50313 29.440624 212.00313 28.9875Q211.33125 28.39375 210.00313 28.39375Q208.75313 28.39375 208.15938 28.83125Q207.58125 29.26875 207.3 30.378124L205.58125 30.14375Q205.81563 29.034374 206.34688 28.3625Q206.87813 27.675 207.89375 27.315624Q208.90938 26.940624 210.25313 26.940624Q211.58125 26.940624 212.40938 27.253124Q213.2375 27.565624 213.62813 28.05Q214.01875 28.51875 214.175 29.2375Q214.26875 29.690624 214.26875 30.8625L214.26875 33.20625Q214.26875 35.659374 214.37813 36.315624Q214.4875 36.95625 214.83125 37.55L212.9875 37.55Q212.72188 37.003124 212.64375 36.26875ZM212.4875 32.346874Q211.53438 32.7375 209.6125 33.003124Q208.53438 33.159374 208.08125 33.3625Q207.64375 33.55 207.39375 33.925Q207.14375 34.3 207.14375 34.76875Q207.14375 35.471874 207.675 35.940624Q208.20625 36.409374 209.2375 36.409374Q210.25313 36.409374 211.03438 35.971874Q211.83125 35.51875 212.20625 34.753124Q212.4875 34.14375 212.4875 32.9875L212.4875 32.346874ZM216.55 38.409374L218.25313 38.659374Q218.3625 39.45625 218.84688 39.815624Q219.50313 40.3 220.64375 40.3Q221.8625 40.3 222.51875 39.815624Q223.19063 39.33125 223.425 38.45625Q223.56563 37.909374 223.55 36.190624Q222.39375 37.55 220.675 37.55Q218.53438 37.55 217.3625 36.003124Q216.19063 34.45625 216.19063 32.3Q216.19063 30.815624 216.72188 29.565624Q217.26875 28.315624 218.28438 27.628124Q219.31563 26.940624 220.69063 26.940624Q222.51875 26.940624 223.72188 28.425L223.72188 27.175L225.33125 27.175L225.33125 36.14375Q225.33125 38.565624 224.83125 39.565624Q224.34688 40.58125 223.26875 41.159374Q222.20625 41.753124 220.64375 41.753124Q218.8 41.753124 217.64375 40.925Q216.50313 40.096874 216.55 38.409374ZM218.00313 32.175Q218.00313 34.221874 218.81563 35.159374Q219.62813 36.096874 220.84688 36.096874Q222.05 36.096874 222.8625 35.159374Q223.69063 34.221874 223.69063 32.2375Q223.69063 30.33125 222.84688 29.3625Q222.00313 28.39375 220.81563 28.39375Q219.64375 28.39375 218.81563 29.346874Q218.00313 30.3 218.00313 32.175ZM234.97188 34.20625L236.78438 34.440624Q236.3625 36.01875 235.19063 36.909374Q234.03438 37.784374 232.22188 37.784374Q229.95625 37.784374 228.6125 36.39375Q227.28438 34.9875 227.28438 32.45625Q227.28438 29.83125 228.62813 28.39375Q229.97188 26.940624 232.12813 26.940624Q234.20625 26.940624 235.51875 28.3625Q236.84688 29.76875 236.84688 32.346874Q236.84688 32.503124 236.83125 32.815624L229.09688 32.815624Q229.19063 34.51875 230.06563 35.425Q230.94063 36.33125 232.2375 36.33125Q233.20625 36.33125 233.87813 35.83125Q234.56563 35.315624 234.97188 34.20625ZM229.19063 31.3625L234.9875 31.3625Q234.87813 30.065624 234.33125 29.409374Q233.4875 28.39375 232.14375 28.39375Q230.94063 28.39375 230.1125 29.20625Q229.28438 30.003124 229.19063 31.3625ZM244.83125 37.55L244.83125 23.2375L246.58125 23.2375L246.58125 37.55L244.83125 37.55ZM248.87813 25.253124L248.87813 23.2375L250.64375 23.2375L250.64375 25.253124L248.87813 25.253124ZM248.87813 37.55L248.87813 27.175L250.64375 27.175L250.64375 37.55L248.87813 37.55ZM252.8625 37.55L252.8625 27.175L254.45625 27.175L254.45625 28.659374Q255.59688 26.940624 257.7531 26.940624Q258.6906 26.940624 259.47186 27.284374Q260.26874 27.6125 260.65936 28.159374Q261.05 28.70625 261.20624 29.45625Q261.3 29.95625 261.3 31.175L261.3 37.55L259.53436 37.55L259.53436 31.2375Q259.53436 30.159374 259.33124 29.628124Q259.1281 29.096874 258.59686 28.784374Q258.08124 28.471874 257.3781 28.471874Q256.2531 28.471874 255.44063 29.190624Q254.62813 29.89375 254.62813 31.878124L254.62813 37.55L252.8625 37.55ZM262.8781 37.55L262.8781 23.2375L264.64374 23.2375L264.64374 31.39375L268.8 27.175L271.0656 27.175L267.1125 31.01875L271.47186 37.55L269.3 37.55L265.8781 32.253124L264.64374 33.440624L264.64374 37.55L262.8781 37.55ZM272.15936 34.45625L273.90936 34.175Q274.05 35.221874 274.72186 35.784374Q275.39374 36.33125 276.59686 36.33125Q277.8 36.33125 278.3781 35.846874Q278.97186 35.346874 278.97186 34.690624Q278.97186 34.096874 278.45624 33.753124Q278.09686 33.51875 276.65936 33.159374Q274.72186 32.659374 273.97186 32.315624Q273.2375 31.95625 272.84686 31.33125Q272.45624 30.690624 272.45624 29.925Q272.45624 29.2375 272.76874 28.64375Q273.09686 28.05 273.64374 27.659374Q274.05 27.3625 274.7531 27.159374Q275.47186 26.940624 276.28436 26.940624Q277.5031 26.940624 278.425 27.3Q279.34686 27.64375 279.78436 28.253124Q280.22186 28.846874 280.39374 29.846874L278.675 30.08125Q278.55 29.284374 277.9875 28.846874Q277.425 28.39375 276.40936 28.39375Q275.1906 28.39375 274.675 28.8Q274.15936 29.190624 274.15936 29.721874Q274.15936 30.065624 274.3781 30.346874Q274.58124 30.628124 275.05 30.815624Q275.3156 30.909374 276.59686 31.253124Q278.47186 31.753124 279.20624 32.08125Q279.9406 32.39375 280.3625 33.003124Q280.78436 33.596874 280.78436 34.503124Q280.78436 35.378124 280.26874 36.159374Q279.7531 36.940624 278.78436 37.3625Q277.8156 37.784374 276.59686 37.784374Q274.58124 37.784374 273.51874 36.940624Q272.45624 36.096874 272.15936 34.45625ZM295.59686 37.55L295.59686 36.2375Q294.6125 37.784374 292.6906 37.784374Q291.45624 37.784374 290.40936 37.096874Q289.3781 36.409374 288.8 35.190624Q288.2375 33.971874 288.2375 32.378124Q288.2375 30.815624 288.7531 29.55Q289.26874 28.284374 290.3 27.6125Q291.34686 26.940624 292.6125 26.940624Q293.55 26.940624 294.28436 27.346874Q295.01874 27.7375 295.4875 28.3625L295.4875 23.2375L297.22186 23.2375L297.22186 37.55L295.59686 37.55ZM290.03436 32.378124Q290.03436 34.3625 290.8781 35.346874Q291.72186 36.33125 292.8625 36.33125Q294.01874 36.33125 294.8156 35.39375Q295.6281 34.45625 295.6281 32.51875Q295.6281 30.39375 294.8 29.39375Q293.9875 28.39375 292.78436 28.39375Q291.6125 28.39375 290.8156 29.3625Q290.03436 30.315624 290.03436 32.378124ZM306.64374 36.26875Q305.65936 37.096874 304.7531 37.440624Q303.84686 37.784374 302.8156 37.784374Q301.1125 37.784374 300.1906 36.95625Q299.26874 36.1125 299.26874 34.815624Q299.26874 34.05 299.6125 33.425Q299.97186 32.8 300.53436 32.425Q301.09686 32.034374 301.8 31.83125Q302.3156 31.70625 303.3625 31.565624Q305.4875 31.315624 306.4875 30.971874Q306.5031 30.6125 306.5031 30.503124Q306.5031 29.440624 306.0031 28.9875Q305.33124 28.39375 304.0031 28.39375Q302.7531 28.39375 302.15936 28.83125Q301.58124 29.26875 301.3 30.378124L299.58124 30.14375Q299.8156 29.034374 300.34686 28.3625Q300.8781 27.675 301.89374 27.315624Q302.90936 26.940624 304.2531 26.940624Q305.58124 26.940624 306.40936 27.253124Q307.2375 27.565624 307.6281 28.05Q308.01874 28.51875 308.175 29.2375Q308.26874 29.690624 308.26874 30.8625L308.26874 33.20625Q308.26874 35.659374 308.3781 36.315624Q308.4875 36.95625 308.83124 37.55L306.9875 37.55Q306.72186 37.003124 306.64374 36.26875ZM306.4875 32.346874Q305.53436 32.7375 303.6125 33.003124Q302.53436 33.159374 302.08124 33.3625Q301.64374 33.55 301.39374 33.925Q301.14374 34.3 301.14374 34.76875Q301.14374 35.471874 301.675 35.940624Q302.20624 36.409374 303.2375 36.409374Q304.2531 36.409374 305.03436 35.971874Q305.83124 35.51875 306.20624 34.753124Q306.4875 34.14375 306.4875 32.9875L306.4875 32.346874ZM314.70624 35.971874L314.95624 37.534374Q314.22186 37.690624 313.6281 37.690624Q312.675 37.690624 312.14374 37.39375Q311.6281 37.08125 311.40936 36.596874Q311.1906 36.096874 311.1906 34.51875L311.1906 28.55L309.90936 28.55L309.90936 27.175L311.1906 27.175L311.1906 24.6125L312.9406 23.55L312.9406 27.175L314.70624 27.175L314.70624 28.55L312.9406 28.55L312.9406 34.6125Q312.9406 35.3625 313.03436 35.58125Q313.1281 35.784374 313.33124 35.925Q313.55 36.05 313.9406 36.05Q314.22186 36.05 314.70624 35.971874ZM323.64374 36.26875Q322.65936 37.096874 321.7531 37.440624Q320.84686 37.784374 319.8156 37.784374Q318.1125 37.784374 317.1906 36.95625Q316.26874 36.1125 316.26874 34.815624Q316.26874 34.05 316.6125 33.425Q316.97186 32.8 317.53436 32.425Q318.09686 32.034374 318.8 31.83125Q319.3156 31.70625 320.3625 31.565624Q322.4875 31.315624 323.4875 30.971874Q323.5031 30.6125 323.5031 30.503124Q323.5031 29.440624 323.0031 28.9875Q322.33124 28.39375 321.0031 28.39375Q319.7531 28.39375 319.15936 28.83125Q318.58124 29.26875 318.3 30.378124L316.58124 30.14375Q316.8156 29.034374 317.34686 28.3625Q317.8781 27.675 318.89374 27.315624Q319.90936 26.940624 321.2531 26.940624Q322.58124 26.940624 323.40936 27.253124Q324.2375 27.565624 324.6281 28.05Q325.01874 28.51875 325.175 29.2375Q325.26874 29.690624 325.26874 30.8625L325.26874 33.20625Q325.26874 35.659374 325.3781 36.315624Q325.4875 36.95625 325.83124 37.55L323.9875 37.55Q323.72186 37.003124 323.64374 36.26875ZM323.4875 32.346874Q322.53436 32.7375 320.6125 33.003124Q319.53436 33.159374 319.08124 33.3625Q318.64374 33.55 318.39374 33.925Q318.14374 34.3 318.14374 34.76875Q318.14374 35.471874 318.675 35.940624Q319.20624 36.409374 320.2375 36.409374Q321.2531 36.409374 322.03436 35.971874Q322.83124 35.51875 323.20624 34.753124Q323.4875 34.14375 323.4875 32.9875L323.4875 32.346874ZM327.15936 34.45625L328.90936 34.175Q329.05 35.221874 329.72186 35.784374Q330.39374 36.33125 331.59686 36.33125Q332.8 36.33125 333.3781 35.846874Q333.97186 35.346874 333.97186 34.690624Q333.97186 34.096874 333.45624 33.753124Q333.09686 33.51875 331.65936 33.159374Q329.72186 32.659374 328.97186 32.315624Q328.2375 31.95625 327.84686 31.33125Q327.45624 30.690624 327.45624 29.925Q327.45624 29.2375 327.76874 28.64375Q328.09686 28.05 328.64374 27.659374Q329.05 27.3625 329.7531 27.159374Q330.47186 26.940624 331.28436 26.940624Q332.5031 26.940624 333.425 27.3Q334.34686 27.64375 334.78436 28.253124Q335.22186 28.846874 335.39374 29.846874L333.675 30.08125Q333.55 29.284374 332.9875 28.846874Q332.425 28.39375 331.40936 28.39375Q330.1906 28.39375 329.675 28.8Q329.15936 29.190624 329.15936 29.721874Q329.15936 30.065624 329.3781 30.346874Q329.58124 30.628124 330.05 30.815624Q330.3156 30.909374 331.59686 31.253124Q333.47186 31.753124 334.20624 32.08125Q334.9406 32.39375 335.3625 33.003124Q335.78436 33.596874 335.78436 34.503124Q335.78436 35.378124 335.26874 36.159374Q334.7531 36.940624 333.78436 37.3625Q332.8156 37.784374 331.59686 37.784374Q329.58124 37.784374 328.51874 36.940624Q327.45624 36.096874 327.15936 34.45625ZM344.97186 34.20625L346.78436 34.440624Q346.3625 36.01875 345.1906 36.909374Q344.03436 37.784374 342.22186 37.784374Q339.95624 37.784374 338.6125 36.39375Q337.28436 34.9875 337.28436 32.45625Q337.28436 29.83125 338.6281 28.39375Q339.97186 26.940624 342.1281 26.940624Q344.20624 26.940624 345.51874 28.3625Q346.84686 29.76875 346.84686 32.346874Q346.84686 32.503124 346.83124 32.815624L339.09686 32.815624Q339.1906 34.51875 340.0656 35.425Q340.9406 36.33125 342.2375 36.33125Q343.20624 36.33125 343.8781 35.83125Q344.5656 35.315624 344.97186 34.20625ZM339.1906 31.3625L344.9875 31.3625Q344.8781 30.065624 344.33124 29.409374Q343.4875 28.39375 342.14374 28.39375Q340.9406 28.39375 340.1125 29.20625Q339.28436 30.003124 339.1906 31.3625ZM352.70624 35.971874L352.95624 37.534374Q352.22186 37.690624 351.6281 37.690624Q350.675 37.690624 350.14374 37.39375Q349.6281 37.08125 349.40936 36.596874Q349.1906 36.096874 349.1906 34.51875L349.1906 28.55L347.90936 28.55L347.90936 27.175L349.1906 27.175L349.1906 24.6125L350.9406 23.55L350.9406 27.175L352.70624 27.175L352.70624 28.55L350.9406 28.55L350.9406 34.6125Q350.9406 35.3625 351.03436 35.58125Q351.1281 35.784374 351.33124 35.925Q351.55 36.05 351.9406 36.05Q352.22186 36.05 352.70624 35.971874ZM356.01874 41.753124L354.76874 41.753124Q357.675 37.065624 357.675 32.378124Q357.675 30.534374 357.26874 28.7375Q356.925 27.26875 356.33124 25.925Q355.95624 25.034374 354.76874 22.9875L356.01874 22.9875Q357.8625 25.440624 358.7375 27.909374Q359.4875 30.034374 359.4875 32.3625Q359.4875 35.003124 358.47186 37.471874Q357.47186 39.925 356.01874 41.753124Z" fill-rule="nonzero"/></svg>